<svg xmlns="http://www.w3.org/2000/svg" xmlns:xlink="http://www.w3.org/1999/xlink" viewBox="0 0 242.48 168.39"><defs><style>.cls-1{fill:none;}.cls-2{fill:#fff;}.cls-3{clip-path:url(#clip-path);}.cls-4{fill:#d9d9d9;}.cls-5{fill-rule:evenodd;}</style><clipPath id="clip-path" transform="translate(3.37 3.37)"><rect class="cls-1" width="235.75" height="161.66" rx="20.21"/></clipPath></defs><g id="Layer_2" data-name="Layer 2"><g id="Layer_1-2" data-name="Layer 1"><rect class="cls-2" x="3.37" y="3.37" width="235.75" height="161.66" rx="20.21"/><g class="cls-3"><path class="cls-4" d="M20.21-3.37A23.58,23.58,0,0,0-3.37,20.21H3.37A16.84,16.84,0,0,1,20.21,3.37ZM215.54,3.37a16.84,16.84,0,0,1,16.84,16.84h6.74A23.58,23.58,0,0,0,215.54-3.37Zm16.84,138.08a16.84,16.84,0,0,1-16.84,16.84V165a23.58,23.58,0,0,0,23.58-23.57ZM20.21,158.29A16.84,16.84,0,0,1,3.37,141.45H-3.37A23.58,23.58,0,0,0,20.21,165ZM3.37,141.45V20.21H-3.37V141.45Zm212.17,16.84H20.21V165H215.54ZM232.38,20.21V141.45h6.74V20.21ZM20.21,3.37H215.54V-3.37H20.21Z" transform="translate(3.37 3.37)"/></g><path class="cls-5" d="M101.86,57.93h9.2C118,57.93,122,61.67,122,68.25S118,78.6,111,78.6h-9.17ZM188.5,105.2c-3.2,9.12-6.86,12.12-14.64,12.12a20.79,20.79,0,0,1-3-.2v-6.24c.5.07,1.72.13,2.34.13,3.53,0,5.51-1.5,6.73-5.4l.73-2.31L167.1,65.41h8.34l9.4,30.75H185l9.4-30.75h8.12Zm-41.69-7.81c-4.25,0-7-2.07-7-5.24s2.61-5.17,7.59-5.47l8.87-.57v2.94C156.31,93.92,152.22,97.39,146.81,97.39Zm-2.14,6.18c5,0,9.66-2.57,11.77-6.64h.17v6.24H164V77.26c0-7.51-5.94-12.35-15.08-12.35-8.47,0-14.74,4.91-15,11.65h7.19c.59-3.2,3.53-5.31,7.55-5.31,4.88,0,7.62,2.31,7.62,6.55v2.87l-10,.6c-9.27.57-14.28,4.4-14.28,11.08S137.25,103.57,144.67,103.57ZM67.4,60.8A17.27,17.27,0,0,0,60,62.47a10.45,10.45,0,0,1-3.3,1,10.59,10.59,0,0,1-3.43-1A15.09,15.09,0,0,0,47.54,61,13.56,13.56,0,0,0,36,68.08c-4.94,8.61-1.28,21.37,3.5,28.38,2.34,3.47,5.14,7.28,8.84,7.14a10.46,10.46,0,0,0,4-1.08,11.69,11.69,0,0,1,5.1-1.22,10.94,10.94,0,0,1,4.89,1.19,9.48,9.48,0,0,0,4.28,1.05c3.82-.07,6.23-3.48,8.57-7A30.65,30.65,0,0,0,79,88.68l0-.07-.09,0h0a12.49,12.49,0,0,1-7.36-11.41,12.79,12.79,0,0,1,5.93-10.68h0l.1-.07A13,13,0,0,0,67.4,60.8Zm26.48,42.37v-52h19.29c10,0,16.92,7,16.92,17.1S123,85.38,112.91,85.38h-11v17.79Zm-37.66-43c3.16.27,6.33-1.6,8.31-4a12.81,12.81,0,0,0,2.9-9.05,12.3,12.3,0,0,0-8.24,4.31A11.93,11.93,0,0,0,56.22,60.17Z" transform="translate(3.37 3.37)"/></g></g></svg>