<svg xmlns="http://www.w3.org/2000/svg" xmlns:xlink="http://www.w3.org/1999/xlink" viewBox="0 0 242.48 168.39"><defs><style>.cls-1{fill:none;}.cls-2{fill:#fff;}.cls-3{clip-path:url(#clip-path);}.cls-4{fill:#d9d9d9;}.cls-5{fill:#004e91;}.cls-6{fill:#fd0;}</style><clipPath id="clip-path" transform="translate(3.37 3.37)"><rect class="cls-1" width="235.75" height="161.66" rx="20.21"/></clipPath></defs><g id="Layer_2" data-name="Layer 2"><g id="Layer_1-2" data-name="Layer 1"><rect class="cls-2" x="3.37" y="3.37" width="235.75" height="161.66" rx="20.21"/><g class="cls-3"><path class="cls-4" d="M20.21-3.37A23.58,23.58,0,0,0-3.37,20.21H3.37A16.84,16.84,0,0,1,20.21,3.37ZM215.54,3.37a16.84,16.84,0,0,1,16.84,16.84h6.74A23.58,23.58,0,0,0,215.54-3.37Zm16.84,138.08a16.84,16.84,0,0,1-16.84,16.84V165a23.58,23.58,0,0,0,23.58-23.57ZM20.21,158.29A16.84,16.84,0,0,1,3.37,141.45H-3.37A23.58,23.58,0,0,0,20.21,165ZM3.37,141.45V20.21H-3.37V141.45Zm212.17,16.84H20.21V165H215.54ZM232.38,20.21V141.45h6.74V20.21ZM20.21,3.37H215.54V-3.37H20.21Z" transform="translate(3.37 3.37)"/></g><path class="cls-5" d="M186,45.73H132.1l-5.51,6.2L108.82,72h0l-5.52,6.2H50.12l5.38-6.27,2.55-3,5.37-6.27H39A8.28,8.28,0,0,0,30.83,71h0V88.65A8.24,8.24,0,0,0,39,97h93.83a20.72,20.72,0,0,0,13.57-6.2l14.19-16.12Z" transform="translate(3.37 3.37)"/><path class="cls-6" d="M196.79,26.92a8.28,8.28,0,0,1,8.12,8.34V52.89a8.23,8.23,0,0,1-8.12,8.34H172.33l5.44-6.2h0l2.69-3.1,5.44-6.2H132L103.3,78.11H49.78l38.37-43.4,1.45-1.66c3-3.37,9.16-6.2,13.64-6.2h93.55Z" transform="translate(3.37 3.37)"/><path class="cls-5" d="M204.91,133.91v-2.55c0-.35-.2-.55-.68-.55h-1.66c-.48,0-.82-.07-.89-.28a2.87,2.87,0,0,1-.14-1.31v-9.64h2.69a.63.63,0,0,0,.48-.21.61.61,0,0,0,.2-.48V116.2a.62.62,0,0,0-.2-.48.63.63,0,0,0-.48-.21h-2.69V112a.56.56,0,0,0-.14-.41,1,1,0,0,0-.41-.14h-.07l-4,.69c-.2.07-.34.14-.48.2a.61.61,0,0,0-.21.42v2.68h-2.68a.6.6,0,0,0-.48.21.63.63,0,0,0-.21.48v2.21a.42.42,0,0,0,.21.41,1,1,0,0,0,.48.28l2.68.41v9.64a10.93,10.93,0,0,0,.35,2.9,4.49,4.49,0,0,0,1,1.72,3.74,3.74,0,0,0,1.72.83,13.36,13.36,0,0,0,2.42.2,7.67,7.67,0,0,0,1.3-.07l1.31-.2a.5.5,0,0,0,.55-.55m-14.32-.35v-3a.41.41,0,0,0-.21-.41,1,1,0,0,0-.41-.14h-.07a16.7,16.7,0,0,1-1.79.14,20.65,20.65,0,0,1-2.28.07,2.46,2.46,0,0,1-1-.21,2.74,2.74,0,0,1-.9-.62,2.77,2.77,0,0,1-.55-1.17,6.85,6.85,0,0,1-.2-1.86v-2.76a6.85,6.85,0,0,1,.2-1.86,4,4,0,0,1,.55-1.17,2.74,2.74,0,0,1,.9-.62,2.71,2.71,0,0,1,1-.21,20.65,20.65,0,0,1,2.28.07c.55.07,1.17.07,1.79.14H190a.58.58,0,0,0,.41-.14.41.41,0,0,0,.21-.41v-3a.62.62,0,0,0-.14-.48,2.12,2.12,0,0,0-.55-.28c-.49-.14-1-.21-1.79-.34a14.83,14.83,0,0,0-2.62-.14,7.62,7.62,0,0,0-5.65,2.13,8.74,8.74,0,0,0-2.14,6.27v2.76a8.55,8.55,0,0,0,2.14,6.27,7.51,7.51,0,0,0,5.65,2.13c1,0,1.86-.07,2.62-.14a15.24,15.24,0,0,0,1.79-.34,1.06,1.06,0,0,0,.55-.28c.14-.06.14-.27.14-.48M169,130.05a7.13,7.13,0,0,1-1.3.48,5.24,5.24,0,0,1-1.45.21,3.26,3.26,0,0,1-1.59-.28c-.34-.2-.48-.62-.48-1.38v-.27a4.06,4.06,0,0,1,.14-1,1.79,1.79,0,0,1,.48-.76,2.56,2.56,0,0,1,.9-.48,7.09,7.09,0,0,1,1.44-.14H169Zm5.24-8.06a8.15,8.15,0,0,0-.55-3.1,5.8,5.8,0,0,0-1.52-2.07,5.66,5.66,0,0,0-2.41-1.17,12.07,12.07,0,0,0-3.24-.41,26.06,26.06,0,0,0-3.23.2,14,14,0,0,0-2.48.49c-.42.13-.62.34-.62.75v2.69a1.05,1.05,0,0,0,.13.48,1,1,0,0,0,.42.14h.14c.27,0,.62-.07,1-.07s.83-.07,1.31-.07,1-.07,1.58-.07h1.59a3.22,3.22,0,0,1,1.79.42,2.14,2.14,0,0,1,.69,1.86v1.17H167c-2.83,0-5,.41-6.2,1.31a4.8,4.8,0,0,0-1.93,4.27v.27a6.11,6.11,0,0,0,.48,2.69,5,5,0,0,0,1.31,1.79,5.54,5.54,0,0,0,1.79,1,7.52,7.52,0,0,0,2.14.27,7.12,7.12,0,0,0,2.54-.41,10.39,10.39,0,0,0,2.07-1.1v.55a.63.63,0,0,0,.21.48.61.61,0,0,0,.48.21h3.72a.61.61,0,0,0,.48-.21.63.63,0,0,0,.21-.48V122Zm-17.7,11.92v-2.55c0-.35-.21-.55-.69-.55h-1.59c-.48,0-.82-.07-.89-.28a2.87,2.87,0,0,1-.14-1.31v-9.64h2.69a.63.63,0,0,0,.48-.21.61.61,0,0,0,.2-.48V116.2a.62.62,0,0,0-.2-.48.63.63,0,0,0-.48-.21h-2.69V112a.56.56,0,0,0-.14-.41,1,1,0,0,0-.41-.14h-.07l-4,.69c-.2.07-.34.14-.48.2a.61.61,0,0,0-.21.42v2.68h-2.68a.6.6,0,0,0-.48.21.63.63,0,0,0-.21.48v2.21a.42.42,0,0,0,.21.41,1,1,0,0,0,.48.28l2.68.41v9.64a10.93,10.93,0,0,0,.35,2.9,4.49,4.49,0,0,0,1,1.72,3.47,3.47,0,0,0,1.72.83,13.36,13.36,0,0,0,2.42.2,7.67,7.67,0,0,0,1.3-.07l1.31-.2a.5.5,0,0,0,.49-.55m-14.47-.07v-11a13.79,13.79,0,0,0-.28-3,6.69,6.69,0,0,0-.89-2.41,4,4,0,0,0-1.79-1.58,6.07,6.07,0,0,0-3-.62,9.19,9.19,0,0,0-2.82.41,9.82,9.82,0,0,0-2.62,1.38v-.83a.66.66,0,0,0-.2-.48.64.64,0,0,0-.49-.21h-3.72a.72.72,0,0,0-.69.69v17.64a.72.72,0,0,0,.69.69h4a.61.61,0,0,0,.48-.21.63.63,0,0,0,.21-.48v-13a17.31,17.31,0,0,1,1.65-.76,3.86,3.86,0,0,1,1.52-.28,6.15,6.15,0,0,1,1.24.14,1.46,1.46,0,0,1,.75.48,2,2,0,0,1,.35,1,9.07,9.07,0,0,1,.07,1.45v11a.66.66,0,0,0,.2.48.64.64,0,0,0,.49.21h4a.6.6,0,0,0,.48-.21.54.54,0,0,0,.35-.48M117,126.19c0,2.69-1,4.07-3,4.07a2.53,2.53,0,0,1-2.2-1,5.25,5.25,0,0,1-.76-3v-2.34a5.09,5.09,0,0,1,.76-3,2.53,2.53,0,0,1,2.2-1c1.93,0,3,1.38,3,4.07Zm5.38-2.34a11.6,11.6,0,0,0-.55-3.58,7.56,7.56,0,0,0-1.59-2.69,6.84,6.84,0,0,0-2.62-1.72,10.65,10.65,0,0,0-7.16,0,6.92,6.92,0,0,0-2.62,1.72,7.39,7.39,0,0,0-1.58,2.69,11.31,11.31,0,0,0-.55,3.58v2.34a11.31,11.31,0,0,0,.55,3.58,7.39,7.39,0,0,0,1.58,2.69,6.92,6.92,0,0,0,2.62,1.72,10.65,10.65,0,0,0,7.16,0,6.84,6.84,0,0,0,2.62-1.72,7.56,7.56,0,0,0,1.59-2.69,11.6,11.6,0,0,0,.55-3.58Zm-18.47,9.71v-3a.4.4,0,0,0-.2-.41,1,1,0,0,0-.48-.14h-.07a16.7,16.7,0,0,1-1.79.14c-.56,0-1.31.07-2.28.07a2.46,2.46,0,0,1-1-.21,2.74,2.74,0,0,1-.9-.62,2.77,2.77,0,0,1-.55-1.17,6.85,6.85,0,0,1-.2-1.86v-2.76a6.85,6.85,0,0,1,.2-1.86,4,4,0,0,1,.55-1.17,2.74,2.74,0,0,1,.9-.62,2.71,2.71,0,0,1,1-.21,20.65,20.65,0,0,1,2.28.07c.55.07,1.17.07,1.79.14h.07a1,1,0,0,0,.48-.14.4.4,0,0,0,.2-.41v-3c0-.28-.06-.42-.13-.48a2.12,2.12,0,0,0-.55-.28c-.49-.14-1-.21-1.8-.34a14.65,14.65,0,0,0-2.61-.14,7.58,7.58,0,0,0-5.65,2.13A8.74,8.74,0,0,0,91,123.64v2.76a8.55,8.55,0,0,0,2.14,6.27,7.49,7.49,0,0,0,5.65,2.13c1,0,1.86-.07,2.61-.14s1.31-.2,1.8-.34a1.06,1.06,0,0,0,.55-.28c.13-.06.13-.27.13-.48m-16.25.28v-11a13.79,13.79,0,0,0-.28-3,6.88,6.88,0,0,0-.89-2.41,4,4,0,0,0-1.8-1.58,6,6,0,0,0-3-.62,9.19,9.19,0,0,0-2.82.41A9.82,9.82,0,0,0,76.3,117v-.83a.63.63,0,0,0-.21-.48.6.6,0,0,0-.48-.21H71.89a.72.72,0,0,0-.69.69v17.64a.72.72,0,0,0,.69.69h4a.72.72,0,0,0,.69-.69v-13a17.31,17.31,0,0,1,1.65-.76,3.86,3.86,0,0,1,1.52-.28,6.15,6.15,0,0,1,1.24.14,1.46,1.46,0,0,1,.75.48,2,2,0,0,1,.35,1,9.07,9.07,0,0,1,.07,1.45v11a.66.66,0,0,0,.2.48.64.64,0,0,0,.49.21h4a.61.61,0,0,0,.48-.21.71.71,0,0,0,.35-.48M62,130.05a7.24,7.24,0,0,1-1.31.48,5.12,5.12,0,0,1-1.44.21,3.26,3.26,0,0,1-1.59-.28c-.34-.2-.48-.62-.48-1.38v-.27a4.06,4.06,0,0,1,.14-1,1.7,1.7,0,0,1,.48-.76,2.6,2.6,0,0,1,.89-.48,7.28,7.28,0,0,1,1.45-.14H62ZM67.35,122a8,8,0,0,0-.56-3.1,5.42,5.42,0,0,0-3.92-3.24,12.17,12.17,0,0,0-3.24-.41,26.34,26.34,0,0,0-3.24.2,14.22,14.22,0,0,0-2.48.49c-.41.13-.62.34-.62.75v2.69a.94.94,0,0,0,.14.48,1,1,0,0,0,.41.14H54c.28,0,.62-.07,1-.07s.82-.07,1.37-.07,1-.07,1.59-.07h1.58a3.22,3.22,0,0,1,1.79.42,2.11,2.11,0,0,1,.69,1.86v1.17H60.18c-2.82,0-5,.41-6.2,1.31a5,5,0,0,0-1.93,4.27v.27a6.11,6.11,0,0,0,.48,2.69,5.07,5.07,0,0,0,1.31,1.79,5.65,5.65,0,0,0,1.79,1,7.52,7.52,0,0,0,2.14.27,7.21,7.21,0,0,0,2.55-.41,10.39,10.39,0,0,0,2.07-1.1v.55a.62.62,0,0,0,.2.48.63.63,0,0,0,.48.21h3.72a.64.64,0,0,0,.49-.21.66.66,0,0,0,.2-.48V122Zm-23.7,5.23a2.63,2.63,0,0,1-1,2.14,6.17,6.17,0,0,1-3.51.76H36.41v-6.2h3.72a3.4,3.4,0,0,1,2.76.89,3.34,3.34,0,0,1,.76,2.07Zm-.14-9.85a5.3,5.3,0,0,1-.14,1,1.71,1.71,0,0,1-.55.82,3.34,3.34,0,0,1-1,.55,5.37,5.37,0,0,1-1.66.21H36.41v-5.72H39a7.44,7.44,0,0,1,3.59.62,2.21,2.21,0,0,1,1,2v.48Zm5.65,9.51a5.37,5.37,0,0,0-3-4.89,4.64,4.64,0,0,0,2.06-1.93,6,6,0,0,0,.76-2.89v-.62a6.83,6.83,0,0,0-.76-3.31,5.83,5.83,0,0,0-2.13-2.14,10.53,10.53,0,0,0-3.31-1.17,27.69,27.69,0,0,0-4.27-.34H36.9c-.55,0-1.11.07-1.66.07a10.07,10.07,0,0,0-1.51.14c-.48.06-.83.06-1.1.13a2.37,2.37,0,0,0-1.38.62,2.3,2.3,0,0,0-.42,1.59v20.11a2.42,2.42,0,0,0,.42,1.59,2.91,2.91,0,0,0,1.38.62,5.86,5.86,0,0,0,1.17.14c.48.06,1,.06,1.51.13s1.1.07,1.66.07h1.72a25.63,25.63,0,0,0,4.06-.34,9.53,9.53,0,0,0,3.31-1.17A6.52,6.52,0,0,0,48.33,131a7.33,7.33,0,0,0,.83-3.65Z" transform="translate(3.37 3.37)"/></g></g></svg>