<svg xmlns="http://www.w3.org/2000/svg" xmlns:xlink="http://www.w3.org/1999/xlink" viewBox="0 0 576.18 132.29"><defs><style>.cls-1{fill:none;}.cls-10,.cls-2{fill:#fff;}.cls-3{clip-path:url(#clip-path);}.cls-4{fill:#d9d9d9;}.cls-5{fill:#ed0006;}.cls-10,.cls-12,.cls-5,.cls-6{fill-rule:evenodd;}.cls-6{fill:#f9a000;}.cls-7{fill:#ff5e00;}.cls-8{fill:#1f72cd;}.cls-9{clip-path:url(#clip-path-2);}.cls-11{clip-path:url(#clip-path-3);}.cls-12{fill:#172b85;}</style><clipPath id="clip-path" transform="translate(2.65 2.65)"><path class="cls-1" d="M208.71,0H362.17A15.87,15.87,0,0,1,378,15.87v95.25A15.88,15.88,0,0,1,362.17,127H208.71a15.88,15.88,0,0,1-15.87-15.87V15.88A15.88,15.88,0,0,1,208.71,0Z"/></clipPath><clipPath id="clip-path-2" transform="translate(2.65 2.65)"><path class="cls-1" d="M401.55,0H555a15.87,15.87,0,0,1,15.87,15.87v95.25A15.88,15.88,0,0,1,555,127H401.55a15.87,15.87,0,0,1-15.87-15.87V15.88A15.88,15.88,0,0,1,401.55,0Z"/></clipPath><clipPath id="clip-path-3" transform="translate(2.65 2.65)"><path class="cls-1" d="M15.88,0H169.33a15.87,15.87,0,0,1,15.87,15.87v95.25A15.88,15.88,0,0,1,169.33,127H15.88A15.88,15.88,0,0,1,0,111.13V15.88A15.88,15.88,0,0,1,15.88,0Z"/></clipPath></defs><g id="Layer_2" data-name="Layer 2"><g id="Layer_1-2" data-name="Layer 1"><path class="cls-2" d="M211.36,2.65H364.82a15.88,15.88,0,0,1,15.88,15.88v95.25a15.88,15.88,0,0,1-15.87,15.88H211.36a15.87,15.87,0,0,1-15.87-15.87V18.52A15.88,15.88,0,0,1,211.36,2.65Z"/><g class="cls-3"><path class="cls-4" d="M208.71-2.65a18.53,18.53,0,0,0-18.52,18.53h5.29A13.23,13.23,0,0,1,208.71,2.65Zm153.46,5.3A13.23,13.23,0,0,1,375.4,15.88h5.29A18.53,18.53,0,0,0,362.17-2.65ZM375.4,111.12a13.23,13.23,0,0,1-13.23,13.23v5.3a18.53,18.53,0,0,0,18.52-18.53ZM208.71,124.35a13.23,13.23,0,0,1-13.23-13.23h-5.29a18.53,18.53,0,0,0,18.52,18.53Zm-13.23-13.23V15.88h-5.29v95.24Zm166.69,13.23H208.71v5.3H362.17ZM375.4,15.88v95.24h5.29V15.88ZM208.71,2.65H362.17v-5.3H208.71Z" transform="translate(2.65 2.65)"/></g><path class="cls-5" d="M286.77,90.79a35.75,35.75,0,0,1-23.43,8.72,36.53,36.53,0,0,1,0-73.05,35.75,35.75,0,0,1,23.43,8.72,35.7,35.7,0,0,1,23.42-8.72,36.53,36.53,0,0,1,0,73.05A35.7,35.7,0,0,1,286.77,90.79Z" transform="translate(2.65 2.65)"/><path class="cls-6" d="M286.77,90.79a36.83,36.83,0,0,0,0-55.61,35.7,35.7,0,0,1,23.42-8.72,36.53,36.53,0,0,1,0,73.05A35.7,35.7,0,0,1,286.77,90.79Z" transform="translate(2.65 2.65)"/><ellipse class="cls-7" cx="289.41" cy="65.63" rx="12.69" ry="27.8"/><path class="cls-8" d="M404.2,2.65H557.66a15.87,15.87,0,0,1,15.87,15.87v95.25a15.88,15.88,0,0,1-15.87,15.88H404.2a15.87,15.87,0,0,1-15.87-15.87V18.52A15.88,15.88,0,0,1,404.2,2.65Z"/><g class="cls-9"><path class="cls-4" d="M401.55-2.65A18.53,18.53,0,0,0,383,15.88h5.29A13.23,13.23,0,0,1,401.55,2.65ZM555,2.65a13.23,13.23,0,0,1,13.23,13.23h5.29A18.53,18.53,0,0,0,555-2.65Zm13.23,108.47A13.23,13.23,0,0,1,555,124.35v5.3a18.53,18.53,0,0,0,18.52-18.53ZM401.55,124.35a13.23,13.23,0,0,1-13.23-13.23H383a18.53,18.53,0,0,0,18.52,18.53Zm-13.23-13.23V15.88H383v95.24ZM555,124.35H401.55v5.3H555ZM568.24,15.88v95.24h5.29V15.88ZM401.55,2.65H555v-5.3H401.55Z" transform="translate(2.65 2.65)"/></g><path class="cls-10" d="M423.16,66.07l4.65-11,4.65,11Zm-.26-15.65H433l11.49,26v-26h11.08l8.88,18.65,8.18-18.65h11V77.94H477l-.05-21.56-9.78,21.56h-6l-9.83-21.56V77.94h-13.8l-2.61-6.17H420.75l-2.61,6.17h-7.4Zm73.63,10.73v-5h17l7.42,8-7.75,8.08H496.53V66.74h14.88V61.15ZM489.8,50.42h27.27l8.34,9,8.61-9h8.34L529.68,64.25l12.68,13.68h-8.72l-8.34-9.12-8.66,9.12H489.8ZM418.88,45,401.55,83.33H422.3l2.57-6.12h5.88l2.57,6.12h22.83V78.66l2,4.67H470l2-4.77v4.77h47.49l5.78-6,5.4,6,24.4,0L537.71,64.26,555.1,45h-24l-5.62,5.84L520.22,45H468.56l-4.43,9.9L459.59,45h-20.7v4.51L436.58,45Z" transform="translate(2.65 2.65)"/><path class="cls-2" d="M18.52,2.65H172a15.88,15.88,0,0,1,15.88,15.88v95.25A15.88,15.88,0,0,1,172,129.65H18.52A15.87,15.87,0,0,1,2.65,113.77V18.52A15.88,15.88,0,0,1,18.52,2.65Z"/><g class="cls-11"><path class="cls-4" d="M15.88-2.65A18.53,18.53,0,0,0-2.65,15.88h5.3A13.23,13.23,0,0,1,15.88,2.65Zm153.45,5.3a13.23,13.23,0,0,1,13.23,13.23h5.29A18.53,18.53,0,0,0,169.33-2.65Zm13.23,108.47a13.23,13.23,0,0,1-13.23,13.23v5.3a18.53,18.53,0,0,0,18.52-18.53ZM15.87,124.35A13.22,13.22,0,0,1,2.65,111.12h-5.3a18.53,18.53,0,0,0,18.52,18.53ZM2.65,111.12V15.88h-5.3v95.24Zm166.68,13.23H15.87v5.3H169.33ZM182.56,15.88v95.24h5.29V15.88ZM15.88,2.65H169.33v-5.3H15.88Z" transform="translate(2.65 2.65)"/></g><path class="cls-12" d="M137.57,56.71l3.11,15.12H132ZM153.46,86,145,45.9h-9A4.71,4.71,0,0,0,131.64,49L116.06,86H127l2.18-5.86h13.4L143.8,86ZM101.72,57a4.12,4.12,0,0,1,4.37-3.4,19.63,19.63,0,0,1,10.28,1.86l1.87-8.64A26.67,26.67,0,0,0,108.58,45C98.3,45,90.82,50.54,90.82,58.25c0,5.87,5.3,9,9,10.81,4,1.85,5.61,3.09,5.29,4.94,0,2.77-3.11,4-6.23,4A26.85,26.85,0,0,1,88,75.54l-1.87,8.64a30.63,30.63,0,0,0,11.54,2.16c11.53.31,18.69-5.24,18.69-13.58C116.37,62.26,101.72,61.65,101.72,57ZM79.29,86H68.69L77.42,45.9H88ZM56.23,86H45l-8.42-32.1a5.19,5.19,0,0,0-2.49-3.39,36.52,36.52,0,0,0-10.29-3.4V45.9H41.89a4.71,4.71,0,0,1,4.67,4l4.37,23.15L62.14,45.9H73.05Z" transform="translate(2.65 2.65)"/></g></g></svg>