<svg xmlns="http://www.w3.org/2000/svg" xmlns:xlink="http://www.w3.org/1999/xlink" viewBox="0 0 242.48 168.39"><defs><style>.cls-1{fill:none;}.cls-2{fill:#fff;}.cls-3{clip-path:url(#clip-path);}.cls-4{fill:#d9d9d9;}.cls-5{clip-path:url(#clip-path-2);}.cls-6{fill:#71706f;}.cls-7{fill:#c8036f;}</style><clipPath id="clip-path" transform="translate(3.37 3.37)"><rect class="cls-1" width="235.75" height="161.66" rx="20.21"/></clipPath><clipPath id="clip-path-2" transform="translate(3.37 3.37)"><rect class="cls-1" x="5.47" y="7.88" width="224.8" height="145.91"/></clipPath></defs><g id="Layer_2" data-name="Layer 2"><g id="Layer_1-2" data-name="Layer 1"><rect class="cls-2" x="3.37" y="3.37" width="235.75" height="161.66" rx="20.21"/><g class="cls-3"><path class="cls-4" d="M20.21-3.37A23.58,23.58,0,0,0-3.37,20.21H3.37A16.84,16.84,0,0,1,20.21,3.37ZM215.54,3.37a16.84,16.84,0,0,1,16.84,16.84h6.74A23.58,23.58,0,0,0,215.54-3.37Zm16.84,138.08a16.84,16.84,0,0,1-16.84,16.84V165a23.58,23.58,0,0,0,23.58-23.57ZM20.21,158.29A16.84,16.84,0,0,1,3.37,141.45H-3.37A23.58,23.58,0,0,0,20.21,165ZM3.37,141.45V20.21H-3.37V141.45Zm212.17,16.84H20.21V165H215.54ZM232.38,20.21V141.45h6.74V20.21ZM20.21,3.37H215.54V-3.37H20.21Z" transform="translate(3.37 3.37)"/></g><g class="cls-5"><path class="cls-6" d="M173.13,82.47H157.64a3.11,3.11,0,0,1-3.13-3.09,3.23,3.23,0,0,1,3.13-3.23h23.58V64.52H157.64a14.92,14.92,0,1,0,0,29.84h15.28A3.09,3.09,0,0,1,176,97.44a3,3,0,0,1-3.12,3H140.15c-2.78,5.31-5.48,9.86-11,12.13h43.95a15,15,0,0,0,0-30.09" transform="translate(3.37 3.37)"/></g><g class="cls-5"><path class="cls-6" d="M113.75,64.52a23.92,23.92,0,0,0-23.82,24v49.87h11.89v-25.8h11.91a24,24,0,0,0,0-48m0,35.91H101.82v-12a12,12,0,1,1,11.93,12" transform="translate(3.37 3.37)"/></g><g class="cls-5"><path class="cls-7" d="M52.31,112.56A24.16,24.16,0,0,1,29.06,94.09a35.33,35.33,0,0,1-.73-5.73A38.09,38.09,0,0,1,29,82.59,24,24,0,0,1,76.28,88.3v5.8H41.22c2.07,4.05,6.26,6.33,11.09,6.33H83.82l0-34.22a9.3,9.3,0,0,0-9.27-9.28H29.92a9.19,9.19,0,0,0-9.27,9.15v44.67a9.41,9.41,0,0,0,9.27,9.4H74.59a9.23,9.23,0,0,0,9.13-7.59Z" transform="translate(3.37 3.37)"/></g><g class="cls-5"><path class="cls-7" d="M52.25,75.73a12.9,12.9,0,0,0-11.07,6.74H63.33a12.9,12.9,0,0,0-11.08-6.74" transform="translate(3.37 3.37)"/></g><g class="cls-5"><path class="cls-7" d="M72.48,42.41A20.24,20.24,0,0,0,32,41.87.57.57,0,0,0,32,42v5.93a1.4,1.4,0,0,0,1.3,1.42h7.44a1.47,1.47,0,0,0,1.37-1.42V42.41a10.12,10.12,0,0,1,20.23,0v5.52a1.42,1.42,0,0,0,1.32,1.42h7.44a1.45,1.45,0,0,0,1.35-1.42V42.41Z" transform="translate(3.37 3.37)"/></g><g class="cls-5"><path class="cls-6" d="M127.09,128,126,134.08a5,5,0,0,1-5.29,4.49c-2.32,0-4.11-1.51-3.59-4.48l1.08-6.1h1.66l-1.08,6.09c-.33,1.9.52,3,2.14,3a3.33,3.33,0,0,0,3.42-3l1.08-6.1Zm-6.52-1.91a.74.74,0,0,0,.81.75,1.07,1.07,0,0,0,1.09-1.08.71.71,0,0,0-.77-.75,1.08,1.08,0,0,0-1.13,1.08m3.59,0a.75.75,0,0,0,.83.76,1.09,1.09,0,0,0,1.08-1.06.73.73,0,0,0-.76-.77,1.09,1.09,0,0,0-1.15,1.07" transform="translate(3.37 3.37)"/></g><g class="cls-5"><path class="cls-6" d="M131.1,128l-.75,4.21a3.79,3.79,0,0,1,2.82-1.33,2.89,2.89,0,0,1,3.14,3.11,4.33,4.33,0,0,1-4.53,4.57,2.48,2.48,0,0,1-2.33-1.29l-.28,1.1h-1.45L129.56,128Zm-1.17,7.1a1.8,1.8,0,0,0,1.88,2,3,3,0,0,0,2.95-2.82,1.77,1.77,0,0,0-1.87-2,3,3,0,0,0-3,2.78" transform="translate(3.37 3.37)"/></g><g class="cls-5"><path class="cls-6" d="M139.34,135.32c-.06,1,.73,1.84,2.07,1.84a3.64,3.64,0,0,0,2.28-.8l.83,1a5.23,5.23,0,0,1-3.39,1.25,3,3,0,0,1-3.36-3.22,4.49,4.49,0,0,1,4.63-4.51c2.38,0,3.72,1.44,2.92,4.47Zm4.72-1.26c.12-1.27-.63-1.78-1.87-1.78a2.58,2.58,0,0,0-2.6,1.78Z" transform="translate(3.37 3.37)"/></g><g class="cls-5"><path class="cls-6" d="M149.43,131l-.08,1a2.76,2.76,0,0,1,2.38-1.14,2.36,2.36,0,0,1,1.7.63l-.92,1.35a1.63,1.63,0,0,0-1.23-.45,2.31,2.31,0,0,0-2.35,2l-.7,4h-1.54L148,131Z" transform="translate(3.37 3.37)"/></g><g class="cls-5"><polygon class="cls-6" points="164.22 134.39 165 140.19 167.81 134.39 169.53 134.39 165.67 141.72 163.86 141.72 163.13 136.89 161.95 139.29 160.66 141.72 158.87 141.72 157.57 134.39 159.3 134.39 160.06 140.19 162.89 134.39 164.22 134.39"/></g><g class="cls-5"><path class="cls-6" d="M168.13,135.32c-.06,1,.74,1.84,2.08,1.84a3.59,3.59,0,0,0,2.27-.8l.84,1a5.25,5.25,0,0,1-3.39,1.25,3,3,0,0,1-3.36-3.22,4.49,4.49,0,0,1,4.63-4.51c2.38,0,3.72,1.44,2.91,4.47Zm4.73-1.26c.12-1.27-.63-1.78-1.87-1.78a2.58,2.58,0,0,0-2.6,1.78Z" transform="translate(3.37 3.37)"/></g><g class="cls-5"><path class="cls-6" d="M178.33,131l-1.3,7.34h-1.54l1.3-7.34ZM177,129a.77.77,0,0,0,.81.79,1.09,1.09,0,0,0,1.15-1.12.75.75,0,0,0-.78-.78A1.12,1.12,0,0,0,177,129" transform="translate(3.37 3.37)"/></g><g class="cls-5"><path class="cls-6" d="M185.16,132.84a2.23,2.23,0,0,0-1.82-.69c-1,0-1.73.34-1.73,1s.58.76,1.45.83c1.34.12,3.06.57,2.7,2.47-.25,1.38-1.63,2.18-3.54,2.18a3.52,3.52,0,0,1-3.12-1.36l1-1.09a3,3,0,0,0,2.39,1.09c.73,0,1.6-.27,1.73-.95s-.45-.92-1.52-1c-1.26-.12-2.63-.58-2.63-2,0-1.84,2-2.49,3.48-2.49a3.34,3.34,0,0,1,2.66,1Z" transform="translate(3.37 3.37)"/></g><g class="cls-5"><path class="cls-6" d="M190,131l-.7,3.95c-.22,1.26.35,2.13,1.63,2.13a2.62,2.62,0,0,0,2.45-2.23l.68-3.85h1.54l-1.3,7.34h-1.4l.11-1.07a3.8,3.8,0,0,1-2.75,1.21c-1.81,0-2.89-1.29-2.5-3.52l.71-4Z" transform="translate(3.37 3.37)"/></g><g class="cls-5"><path class="cls-6" d="M202.38,138.36l.7-3.93c.22-1.27-.21-2.11-1.62-2.11a2.59,2.59,0,0,0-2.46,2.2l-.68,3.84h-1.54l1.31-7.34h1.4l-.1,1.07a3.88,3.88,0,0,1,2.69-1.18c1.79,0,3,1.25,2.55,3.51l-.7,3.94Z" transform="translate(3.37 3.37)"/></g><g class="cls-5"><path class="cls-6" d="M207.59,139.37c-.1,1,.68,1.42,2,1.42a2.58,2.58,0,0,0,2.64-2.25l.23-1.26a3.53,3.53,0,0,1-2.81,1.31,2.94,2.94,0,0,1-3.2-3.15,4.42,4.42,0,0,1,4.59-4.58,2.37,2.37,0,0,1,2.29,1.33l.25-1.17h1.49l-1.28,7.55a4.18,4.18,0,0,1-4.46,3.67c-2.27,0-3.52-1.1-3.21-2.87Zm.44-4.23a1.89,1.89,0,0,0,2,2c3.18,0,4-4.89.85-4.89a2.8,2.8,0,0,0-2.85,2.87" transform="translate(3.37 3.37)"/></g></g></g></svg>