<svg xmlns="http://www.w3.org/2000/svg" xmlns:xlink="http://www.w3.org/1999/xlink" viewBox="0 0 242.48 168.39"><defs><style>.cls-1{fill:none;}.cls-2{fill:#000268;}.cls-3{clip-path:url(#clip-path);}.cls-4{fill:#d9d9d9;}.cls-5{fill:#fff;}.cls-5,.cls-6{fill-rule:evenodd;}.cls-6{fill:#ff0208;}</style><clipPath id="clip-path" transform="translate(3.37 3.37)"><rect class="cls-1" width="235.75" height="161.66" rx="20.21"/></clipPath></defs><g id="Layer_2" data-name="Layer 2"><g id="Layer_1-2" data-name="Layer 1"><rect class="cls-2" x="3.37" y="3.37" width="235.75" height="161.66" rx="20.21"/><g class="cls-3"><path class="cls-4" d="M20.21-3.37A23.58,23.58,0,0,0-3.37,20.21H3.37A16.84,16.84,0,0,1,20.21,3.37ZM215.54,3.37a16.84,16.84,0,0,1,16.84,16.84h6.74A23.58,23.58,0,0,0,215.54-3.37Zm16.84,138.08a16.84,16.84,0,0,1-16.84,16.84V165a23.58,23.58,0,0,0,23.58-23.57ZM20.21,158.29A16.84,16.84,0,0,1,3.37,141.45H-3.37A23.58,23.58,0,0,0,20.21,165ZM3.37,141.45V20.21H-3.37V141.45Zm212.17,16.84H20.21V165H215.54ZM232.38,20.21V141.45h6.74V20.21ZM20.21,3.37H215.54V-3.37H20.21Z" transform="translate(3.37 3.37)"/></g><path class="cls-5" d="M28.86,52.94A9.74,9.74,0,0,1,38.38,43h87v75.66h-87a9.74,9.74,0,0,1-9.52-9.94Zm102.26,47.6h0V69.9H138v3.95H138c1.51-3.06,4.64-4.45,8-4.45,6,0,9.22,5.72,9.22,11,0,6.45-3.42,11.82-9.83,11.82a7.46,7.46,0,0,1-6.81-3.56h-.09v11.86Zm16.5-20c0-2.9-1.62-5.41-4.49-5.43s-4.55,2.44-4.55,5.7,2.07,5.59,4.55,5.59C145.94,86.44,147.62,84.07,147.62,80.58Zm32.86,11.15v0h-6.79c-.05-1.19-.16-2.3-.16-3.44h-.09a7.33,7.33,0,0,1-6.81,3.94c-4.25,0-8-2.12-8-6.86,0-6.67,7.15-7.46,11.11-7.46a22.26,22.26,0,0,1,3.46.29c-.05-3-2.25-3.79-4.93-3.79A13.68,13.68,0,0,0,161.36,76l-.13-5.11a21.76,21.76,0,0,1,8.59-1.55c5.51,0,10.26,2.39,10.26,9.05v8.15A26.3,26.3,0,0,0,180.48,91.73Zm-15-6.93c0,1.53,1.32,2.39,3.06,2.37,2.81,0,4.58-2.6,4.58-5.16-1,0-2-.11-3.14-.11C167.44,81.9,165.46,82.7,165.46,84.8Zm18.35,15.74.52-5.73a9.31,9.31,0,0,0,2.94.46,3.76,3.76,0,0,0,3.76-3L182.3,69.9h8l4.63,14.26H195l4.43-14.26h7.44L199,90.23C196.88,95.7,195.26,101,188.44,101A21.18,21.18,0,0,1,183.81,100.54Z" transform="translate(3.37 3.37)"/><path class="cls-6" d="M61.32,70.06V89.49c0,9-4.29,11.94-13,11.94a24.43,24.43,0,0,1-8.23-1.4l.39-6a14.46,14.46,0,0,0,7.28,1.82c4.3,0,6.61-2.07,6.61-6.36v-1.2H54.3a8.34,8.34,0,0,1-7.24,3.77c-5.89,0-9.58-4.57-9.58-11.07s3-11.44,9.72-11.44A8.39,8.39,0,0,1,54.51,74h.06v-4ZM45.15,80.87c0,3.43,2,5.36,4.23,5.36,2.63,0,4.74-2.28,4.74-5.65,0-2.46-1.39-5.2-4.74-5.2C46.59,75.38,45.15,77.86,45.15,80.87Z" transform="translate(3.37 3.37)"/><path class="cls-6" d="M73.89,60.89H66.44v5.58h7.45Z" transform="translate(3.37 3.37)"/><path class="cls-6" d="M66.44,92.06h7.45v-22H66.44Z" transform="translate(3.37 3.37)"/><path class="cls-6" d="M94.6,69.8a17.63,17.63,0,0,0-2.51-.25c-3.22,0-5.09,1.77-6.37,4.57h-.09v-4H78.86v22h7.45V82.8c0-4.32,2-6.89,5.42-6.89a8.13,8.13,0,0,1,2.51.26Z" transform="translate(3.37 3.37)"/><path class="cls-6" d="M107.43,92.56c-7.13,0-12.53-4.22-12.53-11.48s5.42-11.53,12.53-11.53S120,73.78,120,81.08,114.53,92.56,107.43,92.56Zm0-5.32c3.41,0,4.83-2.92,4.83-6.16s-1.39-6.2-4.83-6.2-4.84,2.92-4.84,6.2S104,87.24,107.43,87.24Z" transform="translate(3.37 3.37)"/></g></g></svg>