<svg xmlns="http://www.w3.org/2000/svg" xmlns:xlink="http://www.w3.org/1999/xlink" viewBox="0 0 242.48 168.39"><defs><style>.cls-1{fill:none;}.cls-2{fill:#fff;}.cls-3{clip-path:url(#clip-path);}.cls-4{fill:#d9d9d9;}.cls-5{fill:#3c4043;fill-rule:evenodd;}.cls-6{fill:#4285f4;}.cls-7{fill:#34a853;}.cls-8{fill:#fbbc04;}.cls-9{fill:#ea4335;}</style><clipPath id="clip-path" transform="translate(3.37 3.37)"><rect class="cls-1" width="235.75" height="161.66" rx="20.21"/></clipPath></defs><g id="Layer_2" data-name="Layer 2"><g id="Layer_1-2" data-name="Layer 1"><rect class="cls-2" x="3.37" y="3.37" width="235.75" height="161.66" rx="20.21"/><g class="cls-3"><path class="cls-4" d="M20.21-3.37A23.58,23.58,0,0,0-3.37,20.21H3.37A16.84,16.84,0,0,1,20.21,3.37ZM215.54,3.37a16.84,16.84,0,0,1,16.84,16.84h6.74A23.58,23.58,0,0,0,215.54-3.37Zm16.84,138.08a16.84,16.84,0,0,1-16.84,16.84V165a23.58,23.58,0,0,0,23.58-23.57ZM20.21,158.29A16.84,16.84,0,0,1,3.37,141.45H-3.37A23.58,23.58,0,0,0,20.21,165ZM3.37,141.45V20.21H-3.37V141.45Zm212.17,16.84H20.21V165H215.54ZM232.38,20.21V141.45h6.74V20.21ZM20.21,3.37H215.54V-3.37H20.21Z" transform="translate(3.37 3.37)"/></g><path class="cls-5" d="M180.83,121.24l21.24-49.47h-6.91l-9.83,24.68h-.12L175.14,71.77h-6.9l13.93,32.17-7.89,17.3Zm-35-21.43a5.22,5.22,0,0,1-2.09-4.2,5.63,5.63,0,0,1,2.56-4.69A10.91,10.91,0,0,1,152.8,89c3.55,0,6.32.76,8.29,2.36a9.49,9.49,0,0,1-3.16,7.09,10,10,0,0,1-7.14,3A7.71,7.71,0,0,1,145.85,99.81ZM163.1,74.46c-2.72-2.53-6.43-3.81-11.13-3.81-6,0-10.58,2.25-13.58,6.69l5.6,3.57a9.64,9.64,0,0,1,8.41-4.57,9.18,9.18,0,0,1,6.12,2.36,7.6,7.6,0,0,1,2.61,5.73v1.48a19,19,0,0,0-9.32-2.08c-4.42,0-8,1-10.62,3.16a10.32,10.32,0,0,0-4,8.5A10.71,10.71,0,0,0,141,103.9a13.54,13.54,0,0,0,9.36,3.36c4.38,0,7.86-2,10.5-5.89h.28v4.77h6.08V85C167.17,80.51,165.83,77,163.1,74.46Zm-51.76,5.16V62.08H122a8.63,8.63,0,0,1,6.09,2.48A8.93,8.93,0,0,1,128.28,77a8.26,8.26,0,0,1-6.28,2.6Zm0,26.52V85.79h10.5a15.16,15.16,0,0,0,10.9-4.28l.71-.72a14.65,14.65,0,0,0-.71-20.51,15,15,0,0,0-10.9-4.37H105v50.23Z" transform="translate(3.37 3.37)"/><path class="cls-6" d="M89.4,81.39a35.61,35.61,0,0,0-.48-5.85H62.12V86.63H77.47a13.38,13.38,0,0,1-5.68,8.78v7.21H81C86.32,97.61,89.4,90.2,89.4,81.39Z" transform="translate(3.37 3.37)"/><path class="cls-7" d="M62.12,109.59c7.66,0,14.13-2.57,18.83-7l-9.16-7.21a17.11,17.11,0,0,1-25.62-9.14H36.73v7.45A28.36,28.36,0,0,0,62.12,109.59Z" transform="translate(3.37 3.37)"/><path class="cls-8" d="M46.17,86.27a17.55,17.55,0,0,1,0-11V67.81H36.73a28.93,28.93,0,0,0,0,25.87Z" transform="translate(3.37 3.37)"/><path class="cls-9" d="M62.12,63.32A15.15,15.15,0,0,1,73,67.65l8.14-8.25a27.24,27.24,0,0,0-19-7.49,28.39,28.39,0,0,0-25.39,15.9l9.44,7.45A17,17,0,0,1,62.12,63.32Z" transform="translate(3.37 3.37)"/></g></g></svg>