<svg xmlns="http://www.w3.org/2000/svg" xmlns:xlink="http://www.w3.org/1999/xlink" viewBox="0 0 242.48 168.39"><defs><style>.cls-1{fill:none;}.cls-2{fill:#fff;}.cls-3{clip-path:url(#clip-path);}.cls-4{fill:#d9d9d9;}.cls-5{fill:#0a0b09;}.cls-6{fill:#d50172;}</style><clipPath id="clip-path" transform="translate(3.37 3.37)"><rect class="cls-1" width="235.75" height="161.66" rx="20.21"/></clipPath></defs><g id="Layer_2" data-name="Layer 2"><g id="Layer_1-2" data-name="Layer 1"><rect class="cls-2" x="3.37" y="3.37" width="235.75" height="161.66" rx="20.21"/><g class="cls-3"><path class="cls-4" d="M20.21-3.37A23.58,23.58,0,0,0-3.37,20.21H3.37A16.84,16.84,0,0,1,20.21,3.37ZM215.54,3.37a16.84,16.84,0,0,1,16.84,16.84h6.74A23.58,23.58,0,0,0,215.54-3.37Zm16.84,138.08a16.84,16.84,0,0,1-16.84,16.84V165a23.58,23.58,0,0,0,23.58-23.57ZM20.21,158.29A16.84,16.84,0,0,1,3.37,141.45H-3.37A23.58,23.58,0,0,0,20.21,165ZM3.37,141.45V20.21H-3.37V141.45Zm212.17,16.84H20.21V165H215.54ZM232.38,20.21V141.45h6.74V20.21ZM20.21,3.37H215.54V-3.37H20.21Z" transform="translate(3.37 3.37)"/></g><polygon id="Path-2" class="cls-2" points="153.71 28.23 130.24 26.27 51.38 25.08 51.38 146.42 135.56 146.42 163.61 138.79 182.7 122.24 192.04 96.2 192.04 66.12 178.07 41.96 153.71 28.23"/><path id="Fill-4" class="cls-5" d="M51,23V138.61h70.21c42.4,0,65.46-19.75,65.46-57.93,0-39.24-25-57.64-65.46-57.64Zm70.21-6c62.18,0,71.46,39.87,71.46,63.63,0,41.23-25.38,63.93-71.46,63.93H45V17.05Z" transform="translate(3.37 3.37)"/><path id="Fill-7" class="cls-6" d="M94.35,62.76v13h4c2.77,0,5.33-.8,5.33-6.62s-2.85-6.42-5.33-6.42Zm66.77-6.48h6.48V75.8h9.59c-2.63-35.43-30.5-43.08-55.83-43.08h-27V56.29h4c7.28,0,11.81,4.94,11.81,12.89,0,8.2-4.42,13.1-11.81,13.1h-4v47.16h27c41.18,0,55.51-19.12,56-47.16H161.12Zm-18,14.5h4.69l-2.14-7.35h-.39l-2.16,7.35ZM133,82.28l7.84-26H150l7.84,26h-6.74l-1.47-5h-8.47l-1.47,5Zm-3.11-6.48v6.48h-16v-26h15.5v6.47h-9v3h8.53v6.47h-8.53V75.8Z" transform="translate(3.37 3.37)"/><path id="Fill-6" d="M85.88,69.27a14,14,0,1,1-14-14,14,14,0,0,1,14,14M60.71,129.42H83.18v-40H60.71Z" transform="translate(3.37 3.37)"/></g></g></svg>