<svg xmlns="http://www.w3.org/2000/svg" xmlns:xlink="http://www.w3.org/1999/xlink" viewBox="0 0 242.48 168.39"><defs><style>.cls-1{fill:none;}.cls-2{fill:#feb4c7;}.cls-3{clip-path:url(#clip-path);}.cls-4{fill:#d9d9d9;}.cls-5{fill:#17120f;fill-rule:evenodd;}</style><clipPath id="clip-path" transform="translate(3.37 3.37)"><rect class="cls-1" width="235.75" height="161.66" rx="20.21"/></clipPath></defs><g id="Layer_2" data-name="Layer 2"><g id="Layer_1-2" data-name="Layer 1"><rect class="cls-2" x="3.37" y="3.37" width="235.75" height="161.66" rx="20.21"/><g class="cls-3"><path class="cls-4" d="M20.21-3.37A23.58,23.58,0,0,0-3.37,20.21H3.37A16.84,16.84,0,0,1,20.21,3.37ZM215.54,3.37a16.84,16.84,0,0,1,16.84,16.84h6.74A23.58,23.58,0,0,0,215.54-3.37Zm16.84,138.08a16.84,16.84,0,0,1-16.84,16.84V165a23.58,23.58,0,0,0,23.58-23.57ZM20.21,158.29A16.84,16.84,0,0,1,3.37,141.45H-3.37A23.58,23.58,0,0,0,20.21,165ZM3.37,141.45V20.21H-3.37V141.45Zm212.17,16.84H20.21V165H215.54ZM232.38,20.21V141.45h6.74V20.21ZM20.21,3.37H215.54V-3.37H20.21Z" transform="translate(3.37 3.37)"/></g><path class="cls-5" d="M206.85,98.62a5.43,5.43,0,1,1,5.43,5.59A5.51,5.51,0,0,1,206.85,98.62ZM125.19,73.87v3.87a10.69,10.69,0,0,1,8.48-3.87v8.65h-.1c-3.42,0-8.36,2.52-8.36,7.2v13.87h-8.88V73.87Zm30.05-.8c-3.46,0-6.73,1.1-8.92,4.15V73.87h-8.61v29.71h8.72V88c0-4.52,2.95-6.73,6.49-6.73,3.81,0,6,2.33,6,6.67v15.67h8.65V84.69C167.56,77.77,162.21,73.07,155.24,73.07Zm31.33,23.3a7.65,7.65,0,1,0-7.84-7.64A7.74,7.74,0,0,0,186.57,96.37Zm7.87-20.6v-1.9h8.65v29.71h-8.65v-1.9a14.84,14.84,0,0,1-8.58,2.72,15.68,15.68,0,0,1,0-31.35A14.91,14.91,0,0,1,194.44,75.77Zm-91.31,13a7.84,7.84,0,1,1-7.84-7.65A7.74,7.74,0,0,1,103.13,88.73Zm0-14.86v1.9a14.94,14.94,0,0,0-8.58-2.72,15.68,15.68,0,0,0,0,31.35,14.86,14.86,0,0,0,8.58-2.72v1.9h8.65V73.87ZM75.78,103.58h-9V60.63h9Zm-15.3-43H51.1a24.94,24.94,0,0,1-9.7,19.92L37.68,83.4l14.41,20.19H63.93L50.67,85A34.65,34.65,0,0,0,60.48,60.62Zm-23.94,43h-9.6v-43h9.6Z" transform="translate(3.37 3.37)"/></g></g></svg>