<svg xmlns="http://www.w3.org/2000/svg" xmlns:xlink="http://www.w3.org/1999/xlink" viewBox="0 0 242.48 168.39"><defs><style>.cls-1{fill:none;}.cls-2{fill:#fff;}.cls-3{clip-path:url(#clip-path);}.cls-4{fill:#d9d9d9;}.cls-5{fill:#3d73b9;}.cls-5,.cls-6{fill-rule:evenodd;}.cls-6,.cls-7{fill:#1d1d1b;}</style><clipPath id="clip-path" transform="translate(3.37 3.37)"><rect class="cls-1" width="235.75" height="161.66" rx="20.21"/></clipPath></defs><g id="Layer_2" data-name="Layer 2"><g id="Layer_1-2" data-name="Layer 1"><rect class="cls-2" x="3.37" y="3.37" width="235.75" height="161.66" rx="20.21"/><g class="cls-3"><path class="cls-4" d="M20.21-3.37A23.58,23.58,0,0,0-3.37,20.21H3.37A16.84,16.84,0,0,1,20.21,3.37ZM215.54,3.37a16.84,16.84,0,0,1,16.84,16.84h6.74A23.58,23.58,0,0,0,215.54-3.37Zm16.84,138.08a16.84,16.84,0,0,1-16.84,16.84V165a23.58,23.58,0,0,0,23.58-23.57ZM20.21,158.29A16.84,16.84,0,0,1,3.37,141.45H-3.37A23.58,23.58,0,0,0,20.21,165ZM3.37,141.45V20.21H-3.37V141.45Zm212.17,16.84H20.21V165H215.54ZM232.38,20.21V141.45h6.74V20.21ZM20.21,3.37H215.54V-3.37H20.21Z" transform="translate(3.37 3.37)"/></g><g id="g20"><path id="path22" class="cls-5" d="M117.33,120.34h44.21c10.09,0,10.2-10.73,9.17-16-.56-3.56-6.62-3.5-7.28,0v4.13a3.45,3.45,0,0,1-3.44,3.44H75.24a3.44,3.44,0,0,1-3.43-3.44v-4.13c-.67-3.5-6.72-3.56-7.28,0-1,5.29-.93,16,9.16,16ZM86.08,17.57h68.16A9,9,0,0,1,163,26.79v4.4c0,6.23-8.41,6.2-8.41,0v-2.4A2.81,2.81,0,0,0,151.73,26H83.43a2.8,2.8,0,0,0-2.8,2.81v2.35c0,6.2-8,6.15-8,.14V26.8c0-5.07,3.94-9.23,8.72-9.23Z" transform="translate(3.37 3.37)"/></g><g id="g24"><path id="path26" class="cls-6" d="M161.23,68.2a13.47,13.47,0,0,1,8,12.07c0,7.42-6.48,13.49-14.39,13.49H132.61a3.67,3.67,0,0,1-3.77-3.5V48a3.73,3.73,0,0,1,3.71-3.7H151A14.11,14.11,0,0,1,161.23,68.2m-16.56-3.44h7v-.07a6.75,6.75,0,0,0,5.7-6.63h0a6.73,6.73,0,0,0-6.71-6.7H136.51V86.41h18a6.92,6.92,0,1,0,.44-13.84H144.67a3.89,3.89,0,1,1,0-7.78h0" transform="translate(3.37 3.37)"/></g><g id="g28"><path id="path30" class="cls-7" d="M88.89,133.31a1.2,1.2,0,0,1,2.39,0v6.44h0a5.35,5.35,0,0,1-5.34,5.34h0a5.34,5.34,0,0,1-5.34-5.33h0v-6.44a1.19,1.19,0,0,1,2.38-.18v6.62h0a3,3,0,0,0,3,3h0a3,3,0,0,0,3-3h0Z" transform="translate(3.37 3.37)"/></g><g id="g32"><path id="path34" class="cls-7" d="M100.17,142.71a1.2,1.2,0,0,1,0,2.39H96.86a4.47,4.47,0,0,1-4.47-4.47h0v-7.32a1.19,1.19,0,0,1,2.37,0v7.31h0a2.1,2.1,0,0,0,2.1,2.1h3.31Z" transform="translate(3.37 3.37)"/></g><g id="g36"><path id="path38" class="cls-7" d="M125.32,89.55a4.46,4.46,0,0,1-8.83,1.28c0-.12,0-.23,0-.34L112.79,56.9,99.88,89.75h0v.15h0v.17h0v.07h0a4.16,4.16,0,0,1-1.12,1.28h0l-.07.06a3.8,3.8,0,0,1-.77.54h0l-.08,0h0l-.08,0h-.44a4.15,4.15,0,0,1-1.3.24h-.33a4,4,0,0,1-1.45-.3h-.37l-.08,0h0l-.07,0h0a4.08,4.08,0,0,1-.7-.47h0l-.15-.14h0l-.11-.1-.27-.07h0L92.32,91h0a4.08,4.08,0,0,1-.47-.7v0l0-.07h0l0-.08h0v-.26h0v-.07L78.62,56.9,75,90.49a4.45,4.45,0,0,1-8.86-.94L70.42,50h0a7.12,7.12,0,0,1,.83-2.66,7.4,7.4,0,0,1,5.53-3.85H77a10.65,10.65,0,0,1,1.13,0h0a6.76,6.76,0,0,1,1.35.19,7.3,7.3,0,0,1,5.18,4.47L95.71,76l11-28a7.34,7.34,0,0,1,6.53-4.66h0a7.1,7.1,0,0,1,1.13,0h.23a7.41,7.41,0,0,1,5.54,3.84,8,8,0,0,1,.54,1.29,7.51,7.51,0,0,1,.29,1.41h0Z" transform="translate(3.37 3.37)"/></g><g id="g40"><path id="path42" class="cls-7" d="M80.14,143.77a1.21,1.21,0,0,1-1,1.39,1.19,1.19,0,0,1-1.39-1s0-.1,0-.15l-1-8.57-3.64,8.41a1.19,1.19,0,0,1-1.57.63,1.18,1.18,0,0,1-.61-.63h0l-3.64-8.41-1,8.57a1.19,1.19,0,1,1-2.38-.13s0-.1,0-.15l1.2-10a1.9,1.9,0,0,1,1-1.48l.23-.11h.09a1.36,1.36,0,0,1,.35-.07h0a2,2,0,0,1,1.66.52,1.61,1.61,0,0,1,.24.28,1.64,1.64,0,0,1,.14.22.83.83,0,0,1,.07.13L72,140.46l3.09-7.2a2,2,0,0,1,1.4-1.13,2.11,2.11,0,0,1,.35,0h.37a2,2,0,0,1,1.48.95h0a1.33,1.33,0,0,1,.16.34,1.55,1.55,0,0,1,.07.23v.15h0Z" transform="translate(3.37 3.37)"/></g><g id="g44"><path id="path46" class="cls-7" d="M105.36,143.91a1.2,1.2,0,0,1-2.39,0h0V134.5H99.58a1.19,1.19,0,0,1,0-2.38h9.16a1.19,1.19,0,1,1,0,2.38h-3.38Z" transform="translate(3.37 3.37)"/></g><g id="g48"><path id="path50" class="cls-7" d="M112.79,143.91a1.2,1.2,0,0,1-2.39,0h0v-10.6a1.2,1.2,0,0,1,2.39,0Z" transform="translate(3.37 3.37)"/></g><g id="g52"><path id="path54" class="cls-7" d="M137.19,143.77a1.19,1.19,0,0,1-2.36.29l-.42-3.36h-4.1a1.19,1.19,0,0,1-.18-2.38h4l-.11-.88h0v-.08a4.13,4.13,0,0,0-.13-.61,4.35,4.35,0,0,0-.25-.63,2.69,2.69,0,0,0-2.41-1.6h0a2.46,2.46,0,0,0-.6.07,2.06,2.06,0,0,0-.54.2,3.36,3.36,0,0,0-1.65,2.65l-.74,6.62a1.19,1.19,0,0,1-2.36-.26h0l.74-6.62a5.7,5.7,0,0,1,2.94-4.51,5.12,5.12,0,0,1,1.05-.39,5,5,0,0,1,1.16-.13h0a5,5,0,0,1,4.53,2.92,7.92,7.92,0,0,1,.41,1,6.55,6.55,0,0,1,.2,1,.17.17,0,0,1,0,.1h0Z" transform="translate(3.37 3.37)"/></g><g id="g56"><path id="path58" class="cls-7" d="M140.83,143.91a1.19,1.19,0,0,1-2.38.18v-10h0v-.2a1.86,1.86,0,0,1,.1-.39h0l.09-.21h0a1.77,1.77,0,0,1,.94-.78l.16,0h.44a1.67,1.67,0,0,1,1.25.65l6.31,8.08v-7.89a1.2,1.2,0,0,1,2.39,0v9.82a1.67,1.67,0,0,1-.63,1.3,1,1,0,0,1-.24.16l-.15.07h0l-.1.05h0a1.7,1.7,0,0,1-1.27-.07l-.16-.08a1.3,1.3,0,0,1-.23-.18l-.15-.16,0-.05h0l-6.33-8.11Z" transform="translate(3.37 3.37)"/></g><g id="g60"><path id="path62" class="cls-7" d="M159.43,142.71a1.2,1.2,0,0,1,0,2.39h-3.51a4.69,4.69,0,0,1-4.69-4.69h0v-3.58h0a4.71,4.71,0,0,1,4.69-4.7h3.51a1.2,1.2,0,0,1,0,2.39h-3.51a2.34,2.34,0,0,0-1.64.7,2.3,2.3,0,0,0-.7,1.63h0v3.59h0a2.34,2.34,0,0,0,2.32,2.32h3.5Z" transform="translate(3.37 3.37)"/></g><g id="g64"><path id="path66" class="cls-7" d="M166.32,134.5h0a3.19,3.19,0,0,0-2.25.9,2.88,2.88,0,0,0-.92,2.1h0v2.22h0a2.87,2.87,0,0,0,.91,2.1,3.21,3.21,0,0,0,2.25.9h0a3.19,3.19,0,0,0,2.25-.9,2.91,2.91,0,0,0,.92-2.1h0V137.5h0a2.94,2.94,0,0,0-.91-2.1,3.28,3.28,0,0,0-2.26-.9m0-2.38h0a5.62,5.62,0,0,1,3.9,1.56,5.28,5.28,0,0,1,1.65,3.81h0v2.22h0a5.29,5.29,0,0,1-1.65,3.82,5.61,5.61,0,0,1-3.9,1.55h0a5.61,5.61,0,0,1-3.9-1.55,5.34,5.34,0,0,1-1.64-3.82h0v-2.22h0a5.31,5.31,0,0,1,1.64-3.81,5.62,5.62,0,0,1,3.9-1.56Z" transform="translate(3.37 3.37)"/></g><g id="g68"><path id="path70" class="cls-7" d="M116.16,134.5v8.21h4.6a1.49,1.49,0,0,0,1.49-1.49h0a1.52,1.52,0,0,0-.39-1l0,0a1.47,1.47,0,0,0-1-.45h-1.59a1.19,1.19,0,1,1,0-2.38h.54a1.5,1.5,0,0,0,.9-.41h0a1.42,1.42,0,0,0,.42-1h0a1.4,1.4,0,0,0-1.4-1.4h-3.47Zm-2.38,4v-5.18h0a1.09,1.09,0,0,1,.09-.47,1.42,1.42,0,0,1,.28-.41h0a1.26,1.26,0,0,1,.78-.34h4.66a3.8,3.8,0,0,1,3.8,3.79h0a3.86,3.86,0,0,1-.58,2,4,4,0,0,1,.7.54l.07.08a3.87,3.87,0,0,1,1.06,2.66h0a3.88,3.88,0,0,1-3.87,3.87H115a1.19,1.19,0,0,1-1.19-1.19Z" transform="translate(3.37 3.37)"/></g></g></g></svg>