<svg xmlns="http://www.w3.org/2000/svg" xmlns:xlink="http://www.w3.org/1999/xlink" viewBox="0 0 242.48 168.39"><defs><style>.cls-1{fill:none;}.cls-2{fill:#fff;}.cls-3{clip-path:url(#clip-path);}.cls-4{fill:#d9d9d9;}.cls-5,.cls-7{fill:#253b80;}.cls-5,.cls-6{fill-rule:evenodd;}.cls-6,.cls-8{fill:#179bd7;}.cls-9{fill:#222d65;}</style><clipPath id="clip-path" transform="translate(3.37 3.37)"><rect class="cls-1" width="235.75" height="161.66" rx="20.21"/></clipPath></defs><g id="Layer_2" data-name="Layer 2"><g id="Layer_1-2" data-name="Layer 1"><rect class="cls-2" x="3.37" y="3.37" width="235.75" height="161.66" rx="20.21"/><g class="cls-3"><path class="cls-4" d="M20.21-3.37A23.58,23.58,0,0,0-3.37,20.21H3.37A16.84,16.84,0,0,1,20.21,3.37ZM215.54,3.37a16.84,16.84,0,0,1,16.84,16.84h6.74A23.58,23.58,0,0,0,215.54-3.37Zm16.84,138.08a16.84,16.84,0,0,1-16.84,16.84V165a23.58,23.58,0,0,0,23.58-23.57ZM20.21,158.29A16.84,16.84,0,0,1,3.37,141.45H-3.37A23.58,23.58,0,0,0,20.21,165ZM3.37,141.45V20.21H-3.37V141.45Zm212.17,16.84H20.21V165H215.54ZM232.38,20.21V141.45h6.74V20.21ZM20.21,3.37H215.54V-3.37H20.21Z" transform="translate(3.37 3.37)"/></g><path class="cls-5" d="M119.69,112.35h5a.87.87,0,0,1,.72,1.37l-16.77,24.21a1.47,1.47,0,0,1-1.2.62h-5a.87.87,0,0,1-.71-1.37L107,129.8l-5.55-16.29a.87.87,0,0,1,.83-1.16h5a1.46,1.46,0,0,1,1.4,1l3,9.84,7-10.24A1.47,1.47,0,0,1,119.69,112.35ZM91,122.12a5.59,5.59,0,0,1-5.66,4.79A4.25,4.25,0,0,1,82,125.56a4.31,4.31,0,0,1-.79-3.53,5.63,5.63,0,0,1,5.63-4.83,4.2,4.2,0,0,1,3.34,1.37A4.32,4.32,0,0,1,91,122.12Zm7-9.77H93a.88.88,0,0,0-.87.74l-.22,1.4-.35-.51c-1.08-1.57-3.51-2.1-5.92-2.1A11.54,11.54,0,0,0,74.42,122a9.46,9.46,0,0,0,1.87,7.71,7.86,7.86,0,0,0,6.32,2.55,9.62,9.62,0,0,0,7-2.87l-.23,1.39a.87.87,0,0,0,.86,1h4.52a1.45,1.45,0,0,0,1.44-1.23l2.71-17.17A.87.87,0,0,0,98,112.35Zm-30.12.12c-.57,3.76-3.44,3.76-6.22,3.76H60.09l1.11-7a.87.87,0,0,1,.86-.74h.72c1.9,0,3.68,0,4.6,1.08A3.5,3.5,0,0,1,67.89,112.47Zm-1.21-9.81H56.21a1.45,1.45,0,0,0-1.44,1.23l-4.24,26.87a.86.86,0,0,0,.86,1h5a1.45,1.45,0,0,0,1.43-1.23L59,123.29a1.45,1.45,0,0,1,1.43-1.23h3.32c6.9,0,10.89-3.34,11.93-10,.47-2.9,0-5.17-1.34-6.77S70.19,102.66,66.68,102.66Z" transform="translate(3.37 3.37)"/><path class="cls-6" d="M165.75,122.12a5.59,5.59,0,0,1-5.66,4.79,4.25,4.25,0,0,1-3.37-1.35,4.31,4.31,0,0,1-.79-3.53,5.62,5.62,0,0,1,5.62-4.83,4.21,4.21,0,0,1,3.35,1.37A4.32,4.32,0,0,1,165.75,122.12Zm7-9.77h-5a.86.86,0,0,0-.86.74l-.23,1.4-.35-.51c-1.08-1.57-3.5-2.1-5.92-2.1A11.53,11.53,0,0,0,149.17,122a9.49,9.49,0,0,0,1.86,7.71,7.87,7.87,0,0,0,6.32,2.55,9.62,9.62,0,0,0,7-2.87l-.23,1.39a.87.87,0,0,0,.87,1h4.52a1.45,1.45,0,0,0,1.43-1.23l2.72-17.17A.88.88,0,0,0,172.74,112.35Zm-30.11.12c-.57,3.76-3.44,3.76-6.22,3.76h-1.58l1.11-7a.88.88,0,0,1,.86-.74h.72c1.9,0,3.68,0,4.6,1.08A3.49,3.49,0,0,1,142.63,112.47Zm-1.21-9.81H130.94a1.45,1.45,0,0,0-1.43,1.23l-4.24,26.87a.86.86,0,0,0,.86,1h5.38a1,1,0,0,0,1-.86l1.2-7.61a1.47,1.47,0,0,1,1.44-1.23h3.32c6.9,0,10.88-3.34,11.92-10,.48-2.9,0-5.17-1.33-6.77S144.93,102.66,141.42,102.66Zm32.94,28.1,4.3-27.36a.86.86,0,0,1,.86-.74h4.84a.88.88,0,0,1,.86,1L181,130.53a1.45,1.45,0,0,1-1.44,1.23h-4.32A.86.86,0,0,1,174.36,130.76Z" transform="translate(3.37 3.37)"/><path class="cls-7" d="M105.46,93.05l1.29-8.19-2.87-.06H90.18L99.7,24.42A.81.81,0,0,1,100,24a.78.78,0,0,1,.5-.19h23.11c7.67,0,13,1.6,15.72,4.75a10.74,10.74,0,0,1,2.52,4.72,17,17,0,0,1,0,6.51l0,.19v1.66l1.3.74a9.15,9.15,0,0,1,2.62,2,9.27,9.27,0,0,1,2.13,4.77,20.33,20.33,0,0,1-.3,6.93,24.64,24.64,0,0,1-2.84,7.84,16.12,16.12,0,0,1-4.5,4.92,18.13,18.13,0,0,1-6.05,2.74,30.28,30.28,0,0,1-7.57.87h-1.8A5.4,5.4,0,0,0,119.46,77l-.14.74L117,92.12l-.1.53a.47.47,0,0,1-.14.31.39.39,0,0,1-.24.09Z" transform="translate(3.37 3.37)"/><path class="cls-8" d="M144.33,40.12c-.07.44-.14.89-.23,1.36-3,15.64-13.47,21-26.79,21h-6.77a3.31,3.31,0,0,0-3.26,2.79l-3.47,22-1,6.24a1.73,1.73,0,0,0,1.71,2h12a2.89,2.89,0,0,0,2.86-2.44l.12-.61,2.26-14.37.15-.78a2.89,2.89,0,0,1,2.85-2.45h1.8c11.65,0,20.77-4.73,23.43-18.41,1.12-5.72.54-10.49-2.41-13.85A11.52,11.52,0,0,0,144.33,40.12Z" transform="translate(3.37 3.37)"/><path class="cls-9" d="M141.15,38.85c-.47-.13-1-.26-1.44-.37s-1-.2-1.53-.29a38.34,38.34,0,0,0-6-.43H114.1a2.88,2.88,0,0,0-2.86,2.44l-3.85,24.4-.11.71a3.29,3.29,0,0,1,3.25-2.78h6.78c13.32,0,23.74-5.41,26.79-21.05.09-.46.16-.92.23-1.36a15.25,15.25,0,0,0-2.5-1Z" transform="translate(3.37 3.37)"/><path class="cls-7" d="M111.24,40.2a2.88,2.88,0,0,1,2.86-2.44h18.11a37,37,0,0,1,6,.44c.52.08,1,.18,1.53.29s1,.23,1.44.36l.68.22a16.72,16.72,0,0,1,2.51,1c.9-5.78,0-9.71-3.14-13.28-3.44-3.92-9.66-5.6-17.62-5.6h-23.1A3.3,3.3,0,0,0,97.21,24L87.59,85a2,2,0,0,0,2,2.29h14.26l3.58-22.72Z" transform="translate(3.37 3.37)"/></g></g></svg>