<svg xmlns="http://www.w3.org/2000/svg" xmlns:xlink="http://www.w3.org/1999/xlink" viewBox="0 0 242.48 168.39"><defs><style>.cls-1{fill:none;}.cls-2{fill:#fff;}.cls-3{clip-path:url(#clip-path);}.cls-4{fill:#d9d9d9;}.cls-5{fill:#0054a5;}.cls-6{fill:#ffc10e;}</style><clipPath id="clip-path" transform="translate(3.37 3.37)"><rect class="cls-1" width="235.75" height="161.66" rx="20.21"/></clipPath></defs><g id="Layer_2" data-name="Layer 2"><g id="Layer_1-2" data-name="Layer 1"><rect class="cls-2" x="3.37" y="3.37" width="235.75" height="161.66" rx="20.21"/><g class="cls-3"><path class="cls-4" d="M20.21-3.37A23.58,23.58,0,0,0-3.37,20.21H3.37A16.84,16.84,0,0,1,20.21,3.37ZM215.54,3.37a16.84,16.84,0,0,1,16.84,16.84h6.74A23.58,23.58,0,0,0,215.54-3.37Zm16.84,138.08a16.84,16.84,0,0,1-16.84,16.84V165a23.58,23.58,0,0,0,23.58-23.57ZM20.21,158.29A16.84,16.84,0,0,1,3.37,141.45H-3.37A23.58,23.58,0,0,0,20.21,165ZM3.37,141.45V20.21H-3.37V141.45Zm212.17,16.84H20.21V165H215.54ZM232.38,20.21V141.45h6.74V20.21ZM20.21,3.37H215.54V-3.37H20.21Z" transform="translate(3.37 3.37)"/></g><path class="cls-5" d="M17,110.59l2.07-.21a2.58,2.58,0,0,0,.76,1.54,2.28,2.28,0,0,0,1.54.49A2.37,2.37,0,0,0,22.9,112a1.32,1.32,0,0,0,.52-1,.94.94,0,0,0-.22-.64,1.68,1.68,0,0,0-.76-.46c-.25-.09-.81-.24-1.7-.46a5.59,5.59,0,0,1-2.39-1,2.7,2.7,0,0,1-1-2.11,2.63,2.63,0,0,1,.46-1.5,2.8,2.8,0,0,1,1.31-1.07,5.33,5.33,0,0,1,2.07-.36,4.45,4.45,0,0,1,3,.87,3,3,0,0,1,1.05,2.32l-2.13.09a1.82,1.82,0,0,0-.59-1.17,2.08,2.08,0,0,0-1.34-.36,2.45,2.45,0,0,0-1.45.38.77.77,0,0,0-.34.66.81.81,0,0,0,.31.64,5.65,5.65,0,0,0,2,.7,10,10,0,0,1,2.29.76,3,3,0,0,1,1.17,1.07,3.17,3.17,0,0,1,.42,1.68,3.11,3.11,0,0,1-.51,1.71,3,3,0,0,1-1.42,1.17,5.94,5.94,0,0,1-2.3.39,4.56,4.56,0,0,1-3.07-.93A4.07,4.07,0,0,1,17,110.59Z" transform="translate(3.37 3.37)"/><path class="cls-5" d="M27.77,105.36V103.5h2v1.86Zm0,8.68v-7.63h2V114Z" transform="translate(3.37 3.37)"/><path class="cls-5" d="M39.26,114h-2v-3.9a5.82,5.82,0,0,0-.13-1.6,1,1,0,0,0-.42-.57,1.19,1.19,0,0,0-.69-.2,1.56,1.56,0,0,0-.94.29,1.4,1.4,0,0,0-.57.76,6.82,6.82,0,0,0-.15,1.76V114h-2v-7.63h1.88v1.12a3.12,3.12,0,0,1,3.74-1.07,2.08,2.08,0,0,1,.83.62,2.3,2.3,0,0,1,.4.85,6.65,6.65,0,0,1,.11,1.36Z" transform="translate(3.37 3.37)"/><path class="cls-5" d="M41.54,114.54l2.3.25a.86.86,0,0,0,.27.59,1.48,1.48,0,0,0,.91.23,2.35,2.35,0,0,0,1.19-.24.92.92,0,0,0,.4-.51,2.77,2.77,0,0,0,.1-.93v-1.11A2.71,2.71,0,0,1,44.44,114a2.81,2.81,0,0,1-2.44-1.3,4.45,4.45,0,0,1-.71-2.57,4.17,4.17,0,0,1,.93-2.93,3,3,0,0,1,2.29-1,2.79,2.79,0,0,1,2.34,1.25v-1.06h1.89v6.86a6.71,6.71,0,0,1-.23,2,2.55,2.55,0,0,1-.62,1,2.67,2.67,0,0,1-1.08.6,5.48,5.48,0,0,1-1.7.22,4.43,4.43,0,0,1-2.76-.67,2.11,2.11,0,0,1-.81-1.7Zm1.82-4.48a2.82,2.82,0,0,0,.47,1.79,1.44,1.44,0,0,0,1.15.56,1.58,1.58,0,0,0,1.24-.58,2.54,2.54,0,0,0,.51-1.72,2.64,2.64,0,0,0-.49-1.76,1.51,1.51,0,0,0-1.22-.58,1.49,1.49,0,0,0-1.19.56A2.71,2.71,0,0,0,43.36,110.06Z" transform="translate(3.37 3.37)"/><path class="cls-5" d="M51.16,114V103.5h2V114Z" transform="translate(3.37 3.37)"/><path class="cls-5" d="M60.15,111.64l2,.33a3.26,3.26,0,0,1-1.23,1.68,3.6,3.6,0,0,1-2.11.58,3.42,3.42,0,0,1-3-1.31,4.32,4.32,0,0,1-.76-2.64,4.2,4.2,0,0,1,1-3,3.26,3.26,0,0,1,2.51-1.08,3.42,3.42,0,0,1,2.7,1.13,5,5,0,0,1,.94,3.47H57.18a2,2,0,0,0,.49,1.4,1.54,1.54,0,0,0,1.18.5,1.28,1.28,0,0,0,.81-.25A1.63,1.63,0,0,0,60.15,111.64Zm.1-2a2,2,0,0,0-.45-1.36,1.39,1.39,0,0,0-1.06-.46,1.4,1.4,0,0,0-1.1.49,1.87,1.87,0,0,0-.42,1.33Z" transform="translate(3.37 3.37)"/><path class="cls-5" d="M68.9,114V103.5h7.8v1.78H71v2.34H76.3v1.78H71v2.86h5.88V114Z" transform="translate(3.37 3.37)"/><path class="cls-5" d="M84.16,114V112.9a3,3,0,0,1-1.1,1,3.07,3.07,0,0,1-1.44.36,2.78,2.78,0,0,1-1.39-.34,2,2,0,0,1-.88-1,4.27,4.27,0,0,1-.28-1.69v-4.84h2v3.51a10.1,10.1,0,0,0,.11,2,1.07,1.07,0,0,0,.41.58,1.28,1.28,0,0,0,.75.21,1.62,1.62,0,0,0,.93-.28,1.47,1.47,0,0,0,.56-.71,8.19,8.19,0,0,0,.15-2.06v-3.22h2V114Z" transform="translate(3.37 3.37)"/><path class="cls-5" d="M90.49,114h-2v-7.63h1.88v1.09a3.3,3.3,0,0,1,.87-1,1.58,1.58,0,0,1,.87-.25,2.61,2.61,0,0,1,1.33.38l-.61,1.77a1.81,1.81,0,0,0-1-.33,1.17,1.17,0,0,0-.72.23,1.65,1.65,0,0,0-.47.85,12.18,12.18,0,0,0-.17,2.56Z" transform="translate(3.37 3.37)"/><path class="cls-5" d="M94.24,110.12a4.05,4.05,0,0,1,.5-2,3.41,3.41,0,0,1,1.4-1.44,4.21,4.21,0,0,1,2-.5,3.83,3.83,0,0,1,2.85,1.13,3.92,3.92,0,0,1,1.1,2.85,4,4,0,0,1-1.12,2.89,3.76,3.76,0,0,1-2.81,1.14,4.37,4.37,0,0,1-2-.48,3.2,3.2,0,0,1-1.45-1.39A4.58,4.58,0,0,1,94.24,110.12Zm2.07.11a2.52,2.52,0,0,0,.54,1.74,1.77,1.77,0,0,0,2.67,0,2.61,2.61,0,0,0,.53-1.76,2.56,2.56,0,0,0-.53-1.73,1.77,1.77,0,0,0-2.67,0A2.55,2.55,0,0,0,96.31,110.23Z" transform="translate(3.37 3.37)"/><path class="cls-5" d="M108.73,114V103.5h3.41a12.69,12.69,0,0,1,2.53.16,2.8,2.8,0,0,1,1.52,1,3.34,3.34,0,0,1,.61,2.06,3.51,3.51,0,0,1-.35,1.63,3,3,0,0,1-.9,1,3.09,3.09,0,0,1-1.1.5,12.18,12.18,0,0,1-2.2.15h-1.39v4Zm2.13-8.76v3H112a5.53,5.53,0,0,0,1.68-.16,1.45,1.45,0,0,0,.66-.53,1.41,1.41,0,0,0,.24-.82,1.4,1.4,0,0,0-.33-1,1.53,1.53,0,0,0-.86-.47,9.87,9.87,0,0,0-1.52-.07Z" transform="translate(3.37 3.37)"/><path class="cls-5" d="M120.45,108.73l-1.82-.33a2.89,2.89,0,0,1,1.07-1.65,3.92,3.92,0,0,1,2.24-.53,4.87,4.87,0,0,1,2,.32,2,2,0,0,1,.94.82,4.14,4.14,0,0,1,.27,1.81l0,2.36a8.91,8.91,0,0,0,.09,1.49,4.55,4.55,0,0,0,.37,1h-2a5.54,5.54,0,0,1-.2-.59,1.7,1.7,0,0,0-.07-.23,3.57,3.57,0,0,1-1.1.76,3.18,3.18,0,0,1-1.26.25,2.58,2.58,0,0,1-1.86-.64,2.15,2.15,0,0,1-.68-1.62,2.26,2.26,0,0,1,.31-1.16,2.06,2.06,0,0,1,.87-.78,7.06,7.06,0,0,1,1.61-.47,11.67,11.67,0,0,0,2-.49v-.21a1.08,1.08,0,0,0-.29-.84,1.71,1.71,0,0,0-1.09-.25,1.21,1.21,0,0,0-1.34,1Zm2.72,1.65a11.76,11.76,0,0,1-1.23.31,3.41,3.41,0,0,0-1.09.36.82.82,0,0,0-.4.71,1,1,0,0,0,.32.74,1.09,1.09,0,0,0,.8.31,1.75,1.75,0,0,0,1-.36,1.36,1.36,0,0,0,.48-.67,4.24,4.24,0,0,0,.08-1Z" transform="translate(3.37 3.37)"/><path class="cls-5" d="M126.61,106.41h2.16l1.83,5.42,1.78-5.42h2.09l-2.68,7.35-.5,1.34a5.38,5.38,0,0,1-.5,1,2,2,0,0,1-.56.57,2.27,2.27,0,0,1-.77.34,3.63,3.63,0,0,1-1,.13,5.54,5.54,0,0,1-1.15-.12l-.19-1.59a4.06,4.06,0,0,0,.86.1,1.25,1.25,0,0,0,1-.42,2.89,2.89,0,0,0,.52-1.07Z" transform="translate(3.37 3.37)"/><path class="cls-5" d="M136.06,106.41h1.86v1a3,3,0,0,1,2.38-1.23,2.6,2.6,0,0,1,1.28.3,2.39,2.39,0,0,1,.89.92,3.66,3.66,0,0,1,1.08-.92,2.71,2.71,0,0,1,1.25-.3,2.88,2.88,0,0,1,1.43.34,2.16,2.16,0,0,1,.87,1,4.28,4.28,0,0,1,.21,1.58V114h-2v-4.37a3.23,3.23,0,0,0-.21-1.47,1,1,0,0,0-.86-.43,1.41,1.41,0,0,0-1.34,1,5.5,5.5,0,0,0-.16,1.58V114h-2v-4.19a5.93,5.93,0,0,0-.11-1.44.87.87,0,0,0-.33-.48,1,1,0,0,0-.62-.16,1.46,1.46,0,0,0-.84.25,1.33,1.33,0,0,0-.53.73,5.29,5.29,0,0,0-.17,1.58V114h-2Z" transform="translate(3.37 3.37)"/><path class="cls-5" d="M154.19,111.64l2,.33a3.26,3.26,0,0,1-1.23,1.68,3.64,3.64,0,0,1-2.11.58,3.42,3.42,0,0,1-3-1.31,4.32,4.32,0,0,1-.76-2.64,4.24,4.24,0,0,1,1-3,3.28,3.28,0,0,1,2.52-1.08,3.38,3.38,0,0,1,2.69,1.13,5,5,0,0,1,1,3.47h-5.08a2,2,0,0,0,.49,1.4,1.54,1.54,0,0,0,1.18.5,1.23,1.23,0,0,0,.8-.25A1.57,1.57,0,0,0,154.19,111.64Zm.1-2a2,2,0,0,0-.45-1.36,1.39,1.39,0,0,0-1.06-.46,1.4,1.4,0,0,0-1.1.49,1.92,1.92,0,0,0-.43,1.33Z" transform="translate(3.37 3.37)"/><path class="cls-5" d="M165.33,114h-2v-3.9a6.27,6.27,0,0,0-.13-1.6,1.13,1.13,0,0,0-.42-.57,1.23,1.23,0,0,0-.7-.2,1.56,1.56,0,0,0-.94.29,1.5,1.5,0,0,0-.57.76,6.82,6.82,0,0,0-.15,1.76V114h-2v-7.63h1.88v1.12a3.07,3.07,0,0,1,2.52-1.31,3,3,0,0,1,1.22.24,2.05,2.05,0,0,1,.84.62,2.13,2.13,0,0,1,.39.85,5.9,5.9,0,0,1,.12,1.36Z" transform="translate(3.37 3.37)"/><path class="cls-5" d="M171.31,106.41V108h-1.38v3.09a7.07,7.07,0,0,0,0,1.09.44.44,0,0,0,.17.26.65.65,0,0,0,.34.1,2.6,2.6,0,0,0,.8-.2l.18,1.57a4,4,0,0,1-1.59.3,2.52,2.52,0,0,1-1-.18,1.42,1.42,0,0,1-.64-.48,1.92,1.92,0,0,1-.29-.79,10.48,10.48,0,0,1-.06-1.42V108H167v-1.61h.92v-1.53l2-1.19v2.72Z" transform="translate(3.37 3.37)"/><path class="cls-5" d="M172.45,111.89l2-.32a1.45,1.45,0,0,0,.52.89,1.75,1.75,0,0,0,1.11.31,2,2,0,0,0,1.18-.29.68.68,0,0,0,.26-.55.56.56,0,0,0-.14-.38,1.68,1.68,0,0,0-.68-.27,10.92,10.92,0,0,1-3.12-1,2,2,0,0,1-.91-1.72,2.11,2.11,0,0,1,.79-1.67,3.68,3.68,0,0,1,2.44-.68,4.28,4.28,0,0,1,2.34.51,2.6,2.6,0,0,1,1.06,1.5l-1.9.35a1.24,1.24,0,0,0-.47-.68,1.72,1.72,0,0,0-1-.24,2.18,2.18,0,0,0-1.15.23.48.48,0,0,0-.24.41.45.45,0,0,0,.2.37,7.33,7.33,0,0,0,1.9.57,5.57,5.57,0,0,1,2.26.91,1.85,1.85,0,0,1,.64,1.51,2.3,2.3,0,0,1-.88,1.81,3.83,3.83,0,0,1-2.59.76,4.28,4.28,0,0,1-2.47-.63A2.9,2.9,0,0,1,172.45,111.89Z" transform="translate(3.37 3.37)"/><path class="cls-5" d="M195.83,114h-2.29l-.91-2.38h-4.25l-.87,2.38h-2.26l4.09-10.54h2.24Zm-3.91-4.16L190.45,106,189,109.88Z" transform="translate(3.37 3.37)"/><path class="cls-5" d="M199.32,114h-2v-7.63h1.88v1.09a3.3,3.3,0,0,1,.87-1,1.61,1.61,0,0,1,.87-.25,2.58,2.58,0,0,1,1.33.38l-.61,1.77a1.79,1.79,0,0,0-1-.33,1.17,1.17,0,0,0-.72.23,1.58,1.58,0,0,0-.46.85,11.5,11.5,0,0,0-.17,2.56Z" transform="translate(3.37 3.37)"/><path class="cls-5" d="M208,111.64l2,.33a3.26,3.26,0,0,1-1.23,1.68,3.59,3.59,0,0,1-2.1.58,3.44,3.44,0,0,1-3-1.31,4.39,4.39,0,0,1-.75-2.64,4.24,4.24,0,0,1,1-3,3.28,3.28,0,0,1,2.52-1.08,3.38,3.38,0,0,1,2.69,1.13,5,5,0,0,1,1,3.47H205a2,2,0,0,0,.49,1.4,1.54,1.54,0,0,0,1.18.5,1.23,1.23,0,0,0,.8-.25A1.57,1.57,0,0,0,208,111.64Zm.1-2a2,2,0,0,0-.45-1.36,1.47,1.47,0,0,0-2.16,0,1.92,1.92,0,0,0-.43,1.33Z" transform="translate(3.37 3.37)"/><path class="cls-5" d="M213.68,108.73l-1.82-.33a2.88,2.88,0,0,1,1.06-1.65,4,4,0,0,1,2.25-.53,4.87,4.87,0,0,1,2,.32,2.05,2.05,0,0,1,.93.82,4.14,4.14,0,0,1,.27,1.81l0,2.36a7.75,7.75,0,0,0,.1,1.49,4,4,0,0,0,.36,1h-2c-.05-.13-.11-.33-.19-.59s-.06-.19-.07-.23a3.73,3.73,0,0,1-1.11.76,3.12,3.12,0,0,1-1.26.25,2.57,2.57,0,0,1-1.85-.64,2.12,2.12,0,0,1-.68-1.62,2.17,2.17,0,0,1,.31-1.16,2,2,0,0,1,.86-.78,7.22,7.22,0,0,1,1.61-.47,11.86,11.86,0,0,0,2-.49v-.21a1.08,1.08,0,0,0-.29-.84,1.74,1.74,0,0,0-1.1-.25,1.21,1.21,0,0,0-1.33,1Zm2.72,1.65a11.76,11.76,0,0,1-1.23.31,3.49,3.49,0,0,0-1.1.36.83.83,0,0,0-.39.71,1,1,0,0,0,.31.74,1.09,1.09,0,0,0,.81.31,1.75,1.75,0,0,0,1-.36,1.36,1.36,0,0,0,.48-.67,4.24,4.24,0,0,0,.08-1Z" transform="translate(3.37 3.37)"/><path class="cls-5" d="M61.77,62.09H48c0-2.26-.27-3.78-.8-4.56-.82-1.14-3.09-1.72-6.8-1.72s-6,.33-7.16,1-1.75,2.11-1.75,4.32c0,2,.52,3.33,1.55,4a6.53,6.53,0,0,0,3,.79l2.78.2q9,.58,11.19.83,7.08.72,10.26,3.77a10,10,0,0,1,3,6.22,44.91,44.91,0,0,1,.27,5.19q0,6.66-1.27,9.75c-1.54,3.79-5,6.17-10.36,7.18a61.65,61.65,0,0,1-10.33.63q-11.61,0-16.17-1.38a10.56,10.56,0,0,1-7.39-6.89c-.66-1.93-1-5.13-1-9.62H30.74v1.15q0,3.59,2.06,4.62a8.13,8.13,0,0,0,3.45.75h5.08a18.2,18.2,0,0,0,5-.4,4,4,0,0,0,2.5-2.41,9.28,9.28,0,0,0,.32-2.66c0-2.43-.89-3.9-2.66-4.43a81.31,81.31,0,0,0-9.24-.88c-4.41-.31-7.48-.61-9.19-.91q-6.78-1.26-9-5.22Q17,68,17,61.19a26.22,26.22,0,0,1,1.07-8.32,9.07,9.07,0,0,1,3.45-4.75,17.54,17.54,0,0,1,8.94-2.93c3-.26,6.36-.4,10-.4q8.7,0,12.39,1,9,2.43,9,13.57C61.9,60,61.86,60.87,61.77,62.09Z" transform="translate(3.37 3.37)"/><path class="cls-5" d="M122.5,99.65V44.5h27.65a30.85,30.85,0,0,1,8.68.93A13.45,13.45,0,0,1,168,54.18q1.22,3.48,1.21,10.45,0,8.4-1.33,12.07-2.66,7.26-10.94,8.35-1,.17-8.27.28l-2.47.08h-8.85V99.65Zm14.84-27h9.25c2.94-.11,4.72-.33,5.37-.69A4,4,0,0,0,153.71,69a24,24,0,0,0,.29-4.3,17.92,17.92,0,0,0-.56-5.2,4.45,4.45,0,0,0-3.84-2.89c-.4,0-1.36-.08-2.88-.08h-9.38Z" transform="translate(3.37 3.37)"/><path class="cls-5" d="M200.89,90.12H181l-2.66,9.53H163L179.59,44.5H202l16.78,55.15h-15Zm-2.95-10.74L191,55.47l-6.75,23.91Z" transform="translate(3.37 3.37)"/><path class="cls-6" d="M102,52.26a19.51,19.51,0,0,1,15.18,7.24l3.2-6.86a28.13,28.13,0,0,0-45.14,9.41H69L65.33,70h8c-.06.73-.1,1.47-.1,2.22a26.42,26.42,0,0,0,.14,2.68h-4l-3.69,7.9h9.77A28.16,28.16,0,0,0,116.7,94.63V85a19.53,19.53,0,0,1-31.06-2.2H106.1l3.68-7.9H82.63a19.93,19.93,0,0,1-.21-2.91,18.81,18.81,0,0,1,.1-2h29.55l3.68-7.9H85.07A19.58,19.58,0,0,1,102,52.26Z" transform="translate(3.37 3.37)"/><path class="cls-5" d="M102,52.5a19.23,19.23,0,0,1,15,7.15l.24.29.16-.34,3.2-6.86.07-.16-.12-.12a28.5,28.5,0,0,0-35.37-2.88A27.53,27.53,0,0,0,75,62l.22-.14H68.86L68.8,62l-3.69,7.9-.15.34h8.39l-.23-.26c-.07.82-.1,1.55-.1,2.24,0,.88,0,1.79.13,2.7l.24-.26H69.21l-.07.14-3.68,7.9L65.3,83H75.44l-.21-.15a28.38,28.38,0,0,0,41.6,12l.11-.07V84.32l-.42.47a19.29,19.29,0,0,1-30.68-2.17l-.2.37h20.61l.06-.14L110,75l.15-.34H82.63l.24.21a20,20,0,0,1-.21-2.88c0-.65,0-1.31.09-2l-.23.21h29.7l.06-.14,3.68-7.9.16-.33H85.07l.21.35A19.41,19.41,0,0,1,102,52.5ZM85.07,62.29h30.68l-.22-.34-3.68,7.9.22-.13H82.3l0,.21a19.32,19.32,0,0,0-.1,2,19.63,19.63,0,0,0,.22,3l0,.2h27.35l-.21-.34-3.69,7.9.22-.14H85.2l.24.37a19.77,19.77,0,0,0,31.44,2.22l-.41-.15v9.68l.1-.19a27.9,27.9,0,0,1-15.51,4.66,27.55,27.55,0,0,1-25.4-16.44l-.06-.15H65.67l.22.34L69.57,75l-.21.14h4.29l0-.26c-.09-.9-.14-1.79-.14-2.66,0-.67,0-1.39.1-2.2l0-.25H65.33l.21.33,3.69-7.9-.22.14h6.4l.06-.15A27.14,27.14,0,0,1,85.44,50a28,28,0,0,1,34.78,2.84l0-.28L117,59.4l.4,0a19.77,19.77,0,0,0-32.5,2.58l-.21.36Z" transform="translate(3.37 3.37)"/></g></g></svg>