<svg xmlns="http://www.w3.org/2000/svg" xmlns:xlink="http://www.w3.org/1999/xlink" viewBox="0 0 242.48 168.39"><defs><style>.cls-1{fill:none;}.cls-2{fill:#ef809f;}.cls-3{clip-path:url(#clip-path);}.cls-4{fill:#d9d9d9;}.cls-5{fill:#fff;}</style><clipPath id="clip-path" transform="translate(3.37 3.37)"><rect class="cls-1" width="235.75" height="161.66" rx="20.21"/></clipPath></defs><g id="Layer_2" data-name="Layer 2"><g id="Layer_1-2" data-name="Layer 1"><rect class="cls-2" x="3.37" y="3.37" width="235.75" height="161.66" rx="20.21"/><g class="cls-3"><path class="cls-4" d="M20.21-3.37A23.58,23.58,0,0,0-3.37,20.21H3.37A16.84,16.84,0,0,1,20.21,3.37ZM215.54,3.37a16.84,16.84,0,0,1,16.84,16.84h6.74A23.58,23.58,0,0,0,215.54-3.37Zm16.84,138.08a16.84,16.84,0,0,1-16.84,16.84V165a23.58,23.58,0,0,0,23.58-23.57ZM20.21,158.29A16.84,16.84,0,0,1,3.37,141.45H-3.37A23.58,23.58,0,0,0,20.21,165ZM3.37,141.45V20.21H-3.37V141.45Zm212.17,16.84H20.21V165H215.54ZM232.38,20.21V141.45h6.74V20.21ZM20.21,3.37H215.54V-3.37H20.21Z" transform="translate(3.37 3.37)"/></g><path class="cls-5" d="M72.35,142.07c5.12,0,9-3.44,9-8.47,0-4.68-3.31-6.7-7.38-7.91-2.6-.75-4.23-1.32-4.23-3.16a2.71,2.71,0,0,1,2.9-2.75,4,4,0,0,1,3.44,2.2l4.25-2.68a8,8,0,0,0-7.54-4.43c-5.13,0-8.39,3.67-8.39,8,0,3.41,2.06,6,7.09,7.51,2.75.78,4.5,1.32,4.5,3.5s-1.48,3.31-3.62,3.31a6.65,6.65,0,0,1-5.1-2.83l-3.53,3.53a10.48,10.48,0,0,0,8.57,4.22m20.72,0a9.62,9.62,0,1,1,9.83-9.62,9.76,9.76,0,0,1-9.83,9.62m0-4.83a4.8,4.8,0,1,0-4.71-4.79,4.69,4.69,0,0,0,4.71,4.79M115.6,120V115.2h-.76c-6.24,0-9.32,4.16-9.32,9v17.34h5.13V134c0-2.54,2-4.35,4.8-4.41V124.7a6.35,6.35,0,0,0-4.8,1.81v-2c0-3.2,2.08-4.65,4.95-4.53m11.19,22a9.62,9.62,0,1,1,9.83-9.62,9.76,9.76,0,0,1-9.83,9.62m0-4.83a4.8,4.8,0,1,0-4.71-4.79,4.67,4.67,0,0,0,4.71,4.79m17.58-11.82v-2.08h-5v18.25h5.13v-8.33c0-3,1.78-4.7,4.86-4.7v-5.49a5.17,5.17,0,0,0-5,2.35m13.09,6.85V127.8a6.3,6.3,0,0,0,4.8,1.81v-4.85c-2.78-.06-4.8-1.93-4.8-4.41v-2.86h-5.13v15.08c0,4.89,3,9.05,9.32,9.05h.76v-4.83c-2.87.09-4.95-1.32-4.95-4.52m11.07,9.62a3.44,3.44,0,1,0-3.44-3.44,3.46,3.46,0,0,0,3.44,3.44" transform="translate(3.37 3.37)"/><path class="cls-5" d="M109.44,77.37a4.06,4.06,0,0,1,.06,5.74l-.3.33a4,4,0,0,1-5.73.06l-9-9c-2.5-2.5-2.83-5.58-1.26-7.21l.3-.33a3.69,3.69,0,0,1,4.92-.33,1.63,1.63,0,0,0,2-2.57,7,7,0,0,0-9.29.61L90.8,65c-2.92,3-2.35,8.11,1.3,11.76l9.08,9a7.37,7.37,0,0,0,10.38-.15l.33-.33a7.36,7.36,0,0,0-.15-10.32,1.61,1.61,0,0,0-2.3,0,1.57,1.57,0,0,0,0,2.29M104,28.79l3.71,30.46a1.62,1.62,0,1,0,3.22-.39l-3.71-30.59,0-.18c-.63-2.53.94-5.37,3.05-5.82a4.47,4.47,0,0,1,5.34,3.5l6.45,27.57a1.63,1.63,0,0,0,3.17-.76l-6.43-27.47a7.74,7.74,0,0,0-9.19-6c-4,.85-6.58,5.49-5.58,9.72" transform="translate(3.37 3.37)"/><path class="cls-5" d="M138,64.56l7.33-36.5A7.73,7.73,0,0,0,140,19a8.06,8.06,0,0,0-9.83,5.73l-8.12,27.78a1.63,1.63,0,0,0,3.14.91l8.11-27.81a4.84,4.84,0,0,1,5.82-3.47,4.5,4.5,0,0,1,3,5.22l-7.33,36.52a1.64,1.64,0,0,0,1.27,1.93A1.66,1.66,0,0,0,138,64.56M119.61,99.72c-11.61,0-21.29-8.5-21.29-20.6a1.63,1.63,0,0,0-3.26,0c0,14,11.25,23.86,24.55,23.86a1.63,1.63,0,0,0,0-3.26m-5.73-28.44a3.86,3.86,0,0,1-1.6,2.23l-.36.22a4.08,4.08,0,0,1-5.67-1.09L99.13,62.05c-1.93-2.95-1.69-6,.18-7.33l.33-.24c2.42-1.38,4.44-.33,6.52,2.72l5.94,8.86a1.63,1.63,0,1,0,2.71-1.81l-5.94-8.86c-3-4.29-6.57-6.19-11-3.65l-.45.3c-3.5,2.38-3.92,7.51-1.06,11.82l7.12,10.62a7.34,7.34,0,0,0,10.17,2l.36-.24A7.39,7.39,0,0,0,117,72.13a1.6,1.6,0,0,0-1.14-2,1.58,1.58,0,0,0-2,1.14" transform="translate(3.37 3.37)"/><path class="cls-5" d="M124.65,76.65c-3.38,1.9-5.49,5.43-5.73,10.83a1.62,1.62,0,0,0,1.53,1.72,1.65,1.65,0,0,0,1.72-1.54c.24-4.89,2.14-7.51,5.19-8.66a11.48,11.48,0,0,1,5-.57l.39.06a1.63,1.63,0,0,0,.66-3.2l-12.51-2.8c-5.86-1.6-6.76-3.77-5.67-7.39a3.62,3.62,0,0,1,2.89-2.72,8,8,0,0,1,3.05,0c.3.07.51.1.6.13l19,4.43.36.12a3,3,0,0,1,1,.69c1.27,1.36,2,3.92,1.63,8.15-1.24,14.78-8.12,23.94-24.46,23.79a1.62,1.62,0,1,0,0,3.23c18.33.15,26.36-10.49,27.71-26.78.43-5.07-.51-8.54-2.47-10.62a5.57,5.57,0,0,0-3.11-1.81l-18.79-4.37a6.84,6.84,0,0,0-.84-.18,11.73,11.73,0,0,0-4.34,0,6.77,6.77,0,0,0-5.28,4.94c-1.57,5.22.09,9.32,8,11.47Z" transform="translate(3.37 3.37)"/></g></g></svg>