<svg xmlns="http://www.w3.org/2000/svg" xmlns:xlink="http://www.w3.org/1999/xlink" viewBox="0 0 733.41 168.39"><defs><style>.cls-1{fill:none;}.cls-10,.cls-2{fill:#fff;}.cls-3{clip-path:url(#clip-path);}.cls-4{fill:#d9d9d9;}.cls-5{fill:#ed0006;}.cls-10,.cls-12,.cls-5,.cls-6{fill-rule:evenodd;}.cls-6{fill:#f9a000;}.cls-7{fill:#ff5e00;}.cls-8{fill:#1f72cd;}.cls-9{clip-path:url(#clip-path-2);}.cls-11{clip-path:url(#clip-path-3);}.cls-12{fill:#172b85;}</style><clipPath id="clip-path" transform="translate(3.37 3.37)"><rect class="cls-1" x="245.46" width="235.75" height="161.66" rx="20.21"/></clipPath><clipPath id="clip-path-2" transform="translate(3.37 3.37)"><rect class="cls-1" x="490.92" width="235.75" height="161.66" rx="20.21"/></clipPath><clipPath id="clip-path-3" transform="translate(3.37 3.37)"><rect class="cls-1" width="235.75" height="161.66" rx="20.21"/></clipPath></defs><g id="Layer_2" data-name="Layer 2"><g id="Layer_1-2" data-name="Layer 1"><rect class="cls-2" x="248.83" y="3.37" width="235.75" height="161.66" rx="20.21"/><g class="cls-3"><path class="cls-4" d="M265.67-3.37a23.58,23.58,0,0,0-23.58,23.58h6.74A16.84,16.84,0,0,1,265.67,3.37ZM461,3.37a16.84,16.84,0,0,1,16.84,16.84h6.74A23.58,23.58,0,0,0,461-3.37Zm16.84,138.08A16.84,16.84,0,0,1,461,158.29V165a23.58,23.58,0,0,0,23.58-23.57ZM265.67,158.29a16.84,16.84,0,0,1-16.84-16.84h-6.74A23.58,23.58,0,0,0,265.67,165Zm-16.84-16.84V20.21h-6.74V141.45ZM461,158.29H265.67V165H461ZM477.84,20.21V141.45h6.74V20.21ZM265.67,3.37H461V-3.37H265.67Z" transform="translate(3.37 3.37)"/></g><path class="cls-5" d="M365,115.56a45.47,45.47,0,0,1-29.81,11.11c-25.39,0-46-20.82-46-46.5s20.58-46.49,46-46.49A45.47,45.47,0,0,1,365,44.79a45.47,45.47,0,0,1,29.81-11.11c25.39,0,46,20.82,46,46.49s-20.58,46.5-46,46.5A45.47,45.47,0,0,1,365,115.56Z" transform="translate(3.37 3.37)"/><path class="cls-6" d="M365,115.56a46.84,46.84,0,0,0,0-70.77,45.47,45.47,0,0,1,29.81-11.11c25.39,0,46,20.82,46,46.49s-20.58,46.5-46,46.5A45.47,45.47,0,0,1,365,115.56Z" transform="translate(3.37 3.37)"/><ellipse class="cls-7" cx="368.39" cy="83.54" rx="16.15" ry="35.39"/><rect class="cls-8" x="494.29" y="3.37" width="235.75" height="161.66" rx="20.21"/><g class="cls-9"><path class="cls-4" d="M511.13-3.37a23.58,23.58,0,0,0-23.57,23.58h6.73A16.84,16.84,0,0,1,511.13,3.37ZM706.47,3.37a16.84,16.84,0,0,1,16.84,16.84H730A23.58,23.58,0,0,0,706.47-3.37Zm16.84,138.08a16.84,16.84,0,0,1-16.84,16.84V165A23.57,23.57,0,0,0,730,141.45ZM511.13,158.29a16.84,16.84,0,0,1-16.84-16.84h-6.73A23.57,23.57,0,0,0,511.13,165Zm-16.84-16.84V20.21h-6.73V141.45Zm212.18,16.84H511.13V165H706.47ZM723.31,20.21V141.45H730V20.21ZM511.13,3.37H706.47V-3.37H511.13Z" transform="translate(3.37 3.37)"/></g><path class="cls-10" d="M538.63,84.1l5.93-14,5.92,14Zm-.33-19.92h12.87l14.63,33.1V64.18h14.1l11.3,23.74,10.41-23.74h14v35h-8.53L607,71.76,594.59,99.21H587L574.44,71.76V99.21H556.88l-3.33-7.85h-18l-3.32,7.84h-9.41ZM632,77.83V71.44h21.66l9.45,10.23-9.87,10.28H632V85H651V77.83Zm-8.58-13.65h34.72l10.61,11.47,11-11.47h10.62L674.23,81.79l16.13,17.4h-11.1l-10.62-11.6-11,11.6H623.45Zm-90.26-6.93-22.06,48.82h26.41l3.27-7.79h7.48l3.28,7.79h29.06v-5.94l2.59,5.94h15l2.59-6.07v6.07h60.44l7.35-7.59,6.89,7.59,31,.06L684.45,81.8l22.12-24.55H676l-7.16,7.44-6.66-7.44H596.43l-5.65,12.6L585,57.25H558.65V63l-2.93-5.74Z" transform="translate(3.37 3.37)"/><rect class="cls-2" x="3.37" y="3.37" width="235.75" height="161.66" rx="20.21"/><g class="cls-11"><path class="cls-4" d="M20.21-3.37A23.58,23.58,0,0,0-3.37,20.21H3.37A16.84,16.84,0,0,1,20.21,3.37ZM215.54,3.37a16.84,16.84,0,0,1,16.84,16.84h6.74A23.58,23.58,0,0,0,215.54-3.37Zm16.84,138.08a16.84,16.84,0,0,1-16.84,16.84V165a23.58,23.58,0,0,0,23.58-23.57ZM20.21,158.29A16.84,16.84,0,0,1,3.37,141.45H-3.37A23.58,23.58,0,0,0,20.21,165ZM3.37,141.45V20.21H-3.37V141.45Zm212.17,16.84H20.21V165H215.54ZM232.38,20.21V141.45h6.74V20.21ZM20.21,3.37H215.54V-3.37H20.21Z" transform="translate(3.37 3.37)"/></g><path class="cls-12" d="M175.11,72.19l4,19.25H168Zm20.22,37.32-10.7-51.08H173.12a6,6,0,0,0-5.55,3.93l-19.84,47.15h13.89l2.77-7.46h17.06l1.59,7.46ZM129.48,72.58c.4-2.75,2.78-4.32,5.56-4.32a25.08,25.08,0,0,1,13.09,2.35l2.38-11a34,34,0,0,0-12.3-2.37c-13.09,0-22.61,7.08-22.61,16.9,0,7.47,6.75,11.39,11.51,13.75,5.15,2.36,7.14,3.93,6.74,6.29,0,3.53-4,5.11-7.93,5.11A34,34,0,0,1,112,96.15l-2.38,11a38.76,38.76,0,0,0,14.68,2.76c14.68.38,23.8-6.68,23.8-17.29C148.13,79.26,129.48,78.47,129.48,72.58Zm-28.55,36.93H87.44l11.1-51.08H112Zm-29.36,0H57.29L46.58,68.65a6.58,6.58,0,0,0-3.18-4.32A46.44,46.44,0,0,0,30.31,60V58.43h23a6,6,0,0,1,6,5.11L64.83,93,79.1,58.43H93Z" transform="translate(3.37 3.37)"/></g></g></svg>